<svg width="410" height="414" viewBox="0 0 410 414" fill="none" xmlns="http://www.w3.org/2000/svg">
<path d="M127.449 335.094L126.257 335.235C125.061 333.979 124.152 333.234 123.531 333C121.1 332.105 119.256 332.786 118 335.044L119.794 328C120.796 328.912 121.367 329.734 122.679 330.315C125.004 331.357 126.594 332.95 127.449 335.094Z" fill="black"/>
<path d="M205.442 0C205.462 0.347371 205.348 0.684722 205.101 1.01205C204.827 1.2325 204.67 1.41286 204.63 1.55315C203.749 4.59933 202.666 7.37161 201.384 9.87001C200.362 11.844 199.801 14.1387 198.959 15.9223C196.905 20.3312 193.257 26.6741 191.153 32.3255C190.438 34.2361 189.597 36.0698 188.628 37.8267C187.432 39.9978 186.116 42.6966 184.68 45.9231C183.297 49.0495 181.824 52.0589 180.261 54.9514C175.525 64.945 170.892 74.8685 166.363 84.7218C165.601 86.3852 164.586 88.5997 163.317 91.3653C153.958 111.78 144.241 132.996 134.167 155.014C130.821 162.319 127.895 169.664 123.917 178.702C122.313 182.35 120.46 186.899 118.907 191.128C118.312 192.737 116.916 195.78 114.718 200.256C112.126 205.533 109.661 211.121 107.323 217.02C105.549 221.489 102.854 225.788 100.89 230.537C98.9928 235.107 97.4931 238.524 96.3909 240.788C95.7362 242.124 94.0628 245.999 91.3707 252.412C89.7741 256.226 88.1909 260.067 86.621 263.935C86.5008 264.229 86.287 264.423 85.9798 264.516C84.6704 264.91 83.0271 265.017 81.0497 264.837L80.178 266.721C78.0336 267.235 76.3202 266.664 75.0376 265.007L75.3081 262.562C75.4284 262.162 75.2246 261.921 74.6969 261.841C74.5299 261.814 74.4397 261.717 74.4263 261.55C74.413 261.437 74.3729 261.333 74.3061 261.24L82.9536 262.292C83.3696 262.34 83.79 262.25 84.149 262.034C84.508 261.818 84.7853 261.49 84.9376 261.099C88.1107 252.923 91.5177 244.933 95.1584 237.131C96.9219 233.357 99.2199 228.156 102.052 221.529C102.32 220.908 104.704 215.737 109.207 206.018C109.882 204.555 113.669 195.727 120.57 179.534C122.701 174.537 124.307 170.953 125.39 168.782C127.795 163.972 129.558 159.093 131.672 154.393C146.182 122.054 163.079 85.5067 182.365 44.7507C182.626 44.2096 185.612 38.2342 191.323 26.8244C194.764 19.9438 197.91 12.9262 200.762 5.7717C201.524 3.86116 202.887 1.93726 204.851 0H205.442Z" fill="#C1D3FE"/>
<path d="M208.929 0C211.755 5.35753 214.591 10.7485 217.436 16.1728C219.19 19.5196 221.044 24.7301 223.268 28.8385C225.266 32.526 227.587 37.142 230.232 42.6866C233.86 50.3154 236.208 55.2019 237.277 57.3463C239.087 61.0004 240.647 64.267 241.956 67.1462C243.686 70.9606 245.239 74.2238 246.616 76.936C248.686 81.0176 251.031 85.9977 253.65 91.8763C254.498 93.7668 255.991 96.8631 258.129 101.165C260.183 105.283 262.137 110.264 263.74 113.741C271.77 131.236 276.072 140.578 276.646 141.767C280.484 149.764 283.841 159.163 287.478 166.498C289.409 170.392 292.038 176.485 295.364 184.775C297.308 189.631 300.084 195.633 303.691 202.781C304.085 203.569 304.566 204.097 305.134 204.364C305.582 204.578 306.253 204.685 307.148 204.685C309.941 204.665 314.59 204.358 321.097 203.763C325.519 203.356 330.168 203.075 335.045 202.921C347.256 202.534 359.468 202.25 371.679 202.07C372.922 202.05 375.066 201.899 378.112 201.619C381.573 201.298 383.744 201.228 384.625 201.408C384.993 201.489 385.06 201.672 384.826 201.96C384.405 202.467 383.653 202.921 382.571 203.322C375.557 205.901 368.212 209.234 360.536 213.323C351.849 217.942 345.266 220.878 337.36 225.126C336.204 225.741 335.927 226.63 336.528 227.792L351.388 256.5C351.407 256.535 351.418 256.575 351.42 256.615C351.423 256.655 351.416 256.696 351.401 256.734C351.385 256.772 351.362 256.807 351.332 256.835C351.302 256.864 351.267 256.887 351.228 256.901C348.382 257.91 346.194 258.534 344.664 258.775C337.643 259.89 331.782 261.19 327.079 262.673C326.371 262.893 325.766 262.983 325.265 262.943C324.771 262.903 324.166 262.94 323.451 263.053C323.319 263.073 323.193 263.125 323.086 263.204C322.978 263.284 322.891 263.388 322.832 263.509C322.773 263.63 322.743 263.764 322.747 263.899C322.75 264.034 322.785 264.167 322.85 264.286C326.825 271.38 329.46 276.304 330.756 279.056C333.415 284.707 335.967 289.671 338.412 293.946C339.621 296.057 341.438 299.728 343.863 304.958C347.64 313.085 352.27 321.181 355.837 328.576C357.995 333.052 359.939 336.933 361.669 340.22C365.283 347.1 367.31 350.962 367.751 351.803C368.72 353.647 369.799 355.958 370.988 358.737C372.117 361.389 373.332 363.621 374.635 365.431C376.85 368.507 378.743 373.828 381.128 377.596C381.957 378.912 382.795 380.542 383.643 382.486C384.953 385.512 386.863 388.471 389.375 391.364C389.729 391.778 390.698 393.658 392.281 397.005C393.323 399.209 394.375 401.043 395.437 402.506C398.129 406.214 400.244 409.477 401.78 412.296C401.832 412.393 401.859 412.501 401.856 412.611C401.854 412.721 401.823 412.828 401.766 412.922C401.709 413.016 401.629 413.094 401.533 413.148C401.437 413.201 401.329 413.229 401.219 413.228H316.778C316.293 413.228 315.819 413.082 315.417 412.808C315.015 412.535 314.703 412.147 314.523 411.695C313.481 409.076 312.295 406.364 310.966 403.558C309.583 400.632 308.441 397.914 307.539 395.402C303.063 382.903 297.485 369.309 290.805 354.619C290.237 353.37 289.295 352.749 287.979 352.755C278.266 352.815 271.015 352.782 266.225 352.655C265.947 352.646 265.676 352.744 265.467 352.928C265.259 353.113 265.128 353.37 265.103 353.647C264.869 356.059 264.552 360.601 264.151 367.275C264.051 368.938 263.907 370.237 263.72 371.173C263.4 372.803 262.915 372.853 262.267 371.323C257.868 360.982 254.782 353.847 251.455 344.699C247.327 333.363 243.209 322.023 239.1 310.68C238.192 308.168 237.029 305.546 235.613 302.814L237.848 301.151C239.384 304.778 240.971 308.369 242.607 311.922C243.148 313.105 243.339 314.738 243.91 316.041C247.644 324.538 250.57 332.571 252.688 340.14C254.391 346.212 255.163 349.809 257.728 354.369C258.75 356.179 259.659 358.039 260.454 359.95C260.538 360.158 260.682 360.336 260.869 360.461C261.055 360.586 261.275 360.652 261.499 360.651C261.723 360.65 261.942 360.581 262.127 360.455C262.313 360.328 262.456 360.149 262.538 359.94C262.645 359.679 262.715 359.329 262.748 358.888C262.882 357.024 262.832 354.606 262.598 351.633C262.583 351.447 262.609 351.26 262.673 351.084C262.737 350.908 262.838 350.749 262.969 350.616C263.1 350.483 263.258 350.379 263.433 350.313C263.607 350.246 263.794 350.218 263.981 350.23C266.018 350.35 268.173 350.21 270.444 349.809C271.907 349.549 274.088 349.388 276.987 349.328C281.436 349.241 285.845 349.241 290.214 349.328C291.63 349.789 292.605 350.708 293.14 352.084C295.779 358.791 299.653 368.25 304.763 380.461C305.932 383.267 307.085 386.2 308.22 389.259C309.249 392.038 310.408 394.937 311.697 397.957C312.98 400.943 314.363 404.53 315.846 408.719C316.133 409.52 316.704 409.925 317.559 409.931C328.335 410.025 340.356 409.908 353.622 409.58C359.334 409.44 366.014 409.434 373.663 409.56C383.977 409.727 391.245 409.894 395.467 410.061C395.558 410.066 395.647 410.045 395.726 410.001C395.804 409.956 395.869 409.89 395.911 409.809C395.954 409.729 395.974 409.637 395.968 409.546C395.962 409.454 395.931 409.365 395.878 409.29C395.37 408.562 394.91 407.83 394.495 407.095C393.38 405.118 390.998 401.227 387.351 395.422C386.877 394.68 385.597 393.004 383.513 390.392C382.297 388.875 381.165 387.088 380.116 385.031C378.279 381.43 377.134 379.229 376.679 378.427C369.024 364.88 364.718 356.887 363.763 354.449C362.146 350.34 360.577 346.212 359.053 342.064C357.624 338.176 354.892 333.596 350.857 328.326C349.982 327.183 347.684 322.628 343.963 314.658C342.36 311.231 341.889 308.766 340.706 305.469C339.905 303.238 338.916 301.014 337.74 298.796C332.91 289.657 329.504 283.401 327.52 280.028C326.498 278.291 325.793 278.394 325.405 280.338C325.345 280.632 325.405 281.157 325.586 281.912C326.347 285.091 327.807 289.497 329.965 295.128C334.353 306.578 337.009 313.709 337.931 316.522C338.365 317.838 339.554 320.386 341.498 324.167C342.627 326.372 343.706 328.924 344.734 331.823C346.204 335.991 347.777 339.832 349.454 343.346C349.995 344.468 350.312 346.269 350.406 348.747C346.825 341.272 344.591 336.462 343.702 334.318C341.384 328.707 339.12 323.543 336.909 318.826C334.33 313.335 332.139 308.145 330.335 303.255C329.387 300.69 327.763 297.099 325.465 292.483C324.383 290.319 322.823 286.711 320.786 281.661C317.987 274.734 314.757 268.037 311.096 261.57L311.968 256.65L323.341 255.017C327.249 254.543 331.047 253.32 334.734 251.35L337.51 251.37C337.655 251.37 337.797 251.331 337.921 251.257C338.046 251.183 338.148 251.077 338.217 250.949C338.286 250.822 338.319 250.678 338.313 250.533C338.306 250.388 338.261 250.248 338.181 250.127C337.259 248.744 336.057 247.532 335.335 246.029C333.198 241.56 330.813 237.281 328.181 233.193C328.107 232.405 327.536 231.526 326.467 230.557C325.285 229.475 324.761 227.812 324.894 225.567C324.904 225.431 324.942 225.298 325.005 225.176C325.069 225.053 325.157 224.945 325.265 224.856L328.542 222.13C329.484 221.342 329.721 221.516 329.253 222.651C328.799 223.747 328.178 224.669 327.389 225.417C326.648 226.125 326.568 226.903 327.149 227.752L328.752 230.097C329.133 230.644 329.494 230.634 329.834 230.067C331.311 227.635 331.868 224.933 331.508 221.96C331.441 221.412 331.551 220.857 331.823 220.375C332.096 219.894 332.515 219.512 333.021 219.285L347.119 212.992C349.431 210.34 352.61 209.057 356.659 209.144L367.17 206.078C367.25 206.051 367.287 205.998 367.28 205.918L367.25 205.587C367.25 205.5 367.207 205.467 367.12 205.487L352.38 208.603L345.867 209.074C342.654 209.041 339.634 209.538 336.808 210.567C336.688 210.667 336.541 210.724 336.367 210.737L331.578 211.008L322.529 211.709L305.886 212.791L300.645 212.781C300.096 212.781 299.558 212.633 299.087 212.353C298.616 212.072 298.23 211.67 297.97 211.188L295.645 206.89C294.349 202.648 293.053 198.973 291.757 195.867C288.317 187.604 284.275 178.388 279.632 168.221C275.905 160.058 273.166 153.969 271.416 149.954C264.789 134.73 258.109 120.444 251.375 107.097C248.088 100.577 245.306 95.4569 243.028 91.736C241.051 88.5095 238.709 87.3037 236.004 88.1187C234.882 88.4527 233.051 89.6651 230.513 91.7561C225.503 95.8844 219.44 100.213 214.711 104.141C208.365 109.419 201.972 114.055 195.532 118.049C195.368 118.15 195.227 118.282 195.116 118.439C195.006 118.596 194.929 118.774 194.889 118.963C194.85 119.151 194.849 119.346 194.887 119.535C194.926 119.725 195.002 119.904 195.111 120.063L196.594 122.228C196.707 122.392 196.773 122.582 196.787 122.779C196.802 122.977 196.762 123.174 196.674 123.35L189.179 138.511C188.805 136.847 189.119 135.147 190.121 133.411C191.677 130.732 192.462 129.376 192.476 129.342C193.538 126.777 194.286 124.165 194.72 121.506C194.78 121.146 194.707 120.815 194.5 120.514L194.059 119.873C193.825 119.526 193.788 119.158 193.949 118.771C194.797 116.747 195.579 115.481 196.293 114.973C201.925 111.012 207.693 106.342 213.599 100.965C214.611 100.043 216.464 99.2613 217.647 98.2893C223.666 93.3526 230.002 88.6364 236.655 84.1406C237.397 83.6329 238.015 83.3557 238.509 83.3089C239.357 83.2221 240.139 83.3791 240.854 83.7799C243.499 85.2829 245.537 87.5542 246.966 90.5937C249.177 95.33 252.24 100.444 256.155 105.935C256.262 106.088 256.395 106.209 256.556 106.296C256.769 106.416 256.963 106.402 257.137 106.255C257.206 106.201 257.255 106.125 257.276 106.04C257.298 105.955 257.291 105.865 257.257 105.784C254.792 99.8926 251.375 94.0006 248.87 87.4573C247.828 84.7385 246.689 82.3704 245.453 80.3529C244.444 78.7163 243.583 76.956 242.868 75.0722C242.36 73.7362 241.468 71.9826 240.192 69.8116C238.81 67.4668 237.49 64.8482 236.234 61.9556C234.451 57.8473 232.433 53.4851 230.182 48.8691C227.497 43.3379 225.99 40.2282 225.663 39.5402C224.942 38.0104 223.843 35.8995 222.366 33.2073C220.963 30.6555 219.901 28.5245 219.18 26.8144C218.028 24.0989 216.404 21.9846 215.192 19.5496C212.386 13.965 209.617 8.08974 206.885 1.9239C206.705 1.50973 206.481 1.23584 206.214 1.10224C205.873 0.93523 205.502 0.905169 205.101 1.01205C205.348 0.684722 205.462 0.347371 205.442 0H208.929Z" fill="#C1D3FE"/>
<path d="M205.101 1.01203C205.502 0.905145 205.873 0.935206 206.214 1.10221C206.481 1.23582 206.705 1.5097 206.885 1.92388C209.617 8.08971 212.386 13.965 215.192 19.5496C216.404 21.9846 218.027 24.0988 219.18 26.8143C219.901 28.5245 220.963 30.6555 222.366 33.2073C223.843 35.8994 224.942 38.0104 225.663 39.5402C225.99 40.2282 227.497 43.3379 230.182 48.8691C232.433 53.4851 234.451 57.8473 236.234 61.9556C237.49 64.8481 238.81 67.4668 240.192 69.8115C241.468 71.9826 242.36 73.7362 242.868 75.0722C243.583 76.956 244.444 78.7163 245.453 80.3529C246.689 82.3703 247.828 84.7385 248.87 87.4573C251.375 94.0006 254.792 99.8925 257.257 105.784C257.291 105.865 257.298 105.955 257.276 106.04C257.255 106.125 257.206 106.201 257.137 106.255C256.963 106.402 256.769 106.416 256.556 106.296C256.395 106.209 256.262 106.088 256.155 105.935C252.24 100.444 249.177 95.3299 246.966 90.5937C245.537 87.5542 243.499 85.2829 240.854 83.7799C240.139 83.379 239.357 83.2221 238.509 83.3089C238.015 83.3557 237.397 83.6329 236.655 84.1406C230.002 88.6364 223.666 93.3526 217.647 98.2893C216.464 99.2612 214.611 100.043 213.599 100.965C207.693 106.342 201.925 111.012 196.293 114.973C195.579 115.481 194.797 116.747 193.949 118.771C193.788 119.158 193.825 119.526 194.059 119.873L194.5 120.514C194.707 120.815 194.78 121.146 194.72 121.506C194.286 124.165 193.538 126.777 192.476 129.342C192.462 129.376 191.677 130.732 190.121 133.41C189.119 135.147 188.805 136.847 189.179 138.511C187.516 141.757 185.892 145.104 184.309 148.551C182.946 151.537 181.38 154.907 179.61 158.662C176.243 165.789 173.103 173.138 170.191 180.706C168.277 185.676 165.431 192.601 162.826 198.202C161.623 200.787 159.873 205.193 157.575 211.419C151.81 227.05 146.623 241.303 142.013 254.175C141.646 255.204 141.172 256.286 140.59 257.422C138.406 260.301 135.036 261.948 130.48 262.362C119.745 263.331 106.575 265.067 90.9699 267.573C87.7433 268.087 84.146 267.803 80.178 266.721L81.0497 264.837C83.7886 266.687 86.8348 267.332 90.1883 266.771C99.7343 265.168 109.334 263.948 118.987 263.113C122.674 262.793 126.749 261.053 131.211 257.893C133.008 256.624 134.288 255.652 135.049 254.977C136.766 253.481 137.852 252.282 138.306 251.38C141.492 245.12 143.897 239.101 145.52 233.323C146.917 228.353 148.53 223.343 150.36 218.293C154.001 208.239 156.516 201.602 157.906 198.382C159.556 194.534 162.742 188.188 167.465 179.344C170.084 174.44 173.704 165.622 178.327 152.89C179.716 149.069 181.346 145.141 183.217 141.106C187.826 131.166 191.126 120.08 193.117 107.849C194.66 98.3795 194.73 88.8201 192.015 80.5734C190.482 75.9039 188.397 72.3767 185.191 66.605C183.017 62.7071 181.654 59.0597 180.261 54.9514C181.824 52.0589 183.297 49.0494 184.68 45.9231C186.116 42.6966 187.432 39.9977 188.628 37.8267C189.597 36.0698 190.438 34.2361 191.153 32.3255C193.257 26.6741 196.905 20.3312 198.959 15.9223C199.801 14.1386 200.362 11.844 201.384 9.86999C202.666 7.37159 203.749 4.5993 204.63 1.55313C204.67 1.41284 204.827 1.23248 205.101 1.01203Z" fill="#252324"/>
<path d="M81.0497 264.837C83.0271 265.017 84.6704 264.91 85.9798 264.516C86.287 264.423 86.5008 264.229 86.621 263.935C88.1909 260.067 89.7741 256.226 91.3707 252.412C94.0628 245.999 95.7362 242.124 96.3908 240.788C97.4931 238.524 98.9928 235.107 100.89 230.537C102.854 225.788 105.549 221.489 107.323 217.02C109.661 211.121 112.126 205.533 114.718 200.256C116.916 195.78 118.312 192.737 118.907 191.128C120.46 186.899 122.313 182.35 123.917 178.702C127.895 169.664 130.821 162.319 134.167 155.014C144.241 132.996 153.958 111.78 163.317 91.3653C164.586 88.5996 165.601 86.3852 166.363 84.7218C170.892 74.8685 175.525 64.945 180.261 54.9514C181.654 59.0597 183.017 62.7071 185.191 66.605C188.397 72.3768 190.482 75.9039 192.015 80.5734C194.73 88.8201 194.66 98.3795 193.117 107.849C191.126 120.08 187.826 131.166 183.217 141.106C181.346 145.141 179.716 149.069 178.327 152.89C173.704 165.622 170.084 174.44 167.465 179.344C162.742 188.188 159.556 194.534 157.906 198.382C156.516 201.602 154.001 208.239 150.36 218.293C148.53 223.343 146.917 228.353 145.52 233.323C143.897 239.101 141.492 245.12 138.306 251.38C137.852 252.282 136.766 253.481 135.049 254.977C134.288 255.652 133.008 256.624 131.211 257.893C126.749 261.053 122.674 262.793 118.987 263.113C109.334 263.949 99.7343 265.168 90.1883 266.771C86.8348 267.332 83.7886 266.687 81.0497 264.837Z" fill="black"/>
<path d="M294.332 209.405C293.951 212.29 294.209 212.811 295.104 210.968C295.391 211.475 295.515 212.033 295.475 212.641C295.401 213.289 295.495 213.707 295.755 213.894C295.875 215.798 296.523 216.776 297.699 216.83C298.968 216.883 301.433 216.459 305.094 215.557C306.009 215.47 306.995 215.447 308.05 215.487C309.319 215.534 310.305 215.494 311.006 215.367C314.119 214.792 316.678 214.461 318.682 214.375C321.294 214.261 323.825 213.917 326.277 213.343C326.751 213.229 329.731 212.728 335.215 211.84C335.997 211.713 336.381 211.345 336.367 210.737C336.541 210.724 336.688 210.667 336.808 210.567C336.715 211.422 336.955 211.836 337.53 211.809C340.97 211.649 344.337 211.025 347.63 209.936C347.978 209.822 347.988 209.678 347.66 209.505C347.159 209.244 346.561 209.101 345.867 209.074L352.38 208.603C353.816 208.509 355.242 208.69 356.659 209.144C352.61 209.057 349.431 210.34 347.119 212.992L346.929 212.17C346.908 212.083 346.868 212.001 346.813 211.931C346.758 211.86 346.688 211.803 346.609 211.762C346.53 211.721 346.443 211.697 346.355 211.694C346.267 211.69 346.179 211.705 346.097 211.739C344.461 212.401 342.907 212.918 341.438 213.292C339.681 213.747 338.118 214.281 336.748 214.896C331.738 217.16 322.289 220.868 322.109 224.445C321.955 227.485 323.067 230.14 325.445 232.411C328.966 237.669 331.665 242.983 333.542 248.354C333.594 248.501 333.61 248.659 333.587 248.813C333.564 248.967 333.504 249.112 333.411 249.235C332.857 249.984 332.059 250.137 331.017 249.696C327.242 249.389 324.169 249.269 321.798 249.336C318.832 249.416 315.485 250.107 312.158 250.247C305.117 250.541 298.407 252.094 292.028 254.907C291.159 255.288 290.14 255.678 288.971 256.079C288.063 256.386 287.037 256.781 285.895 257.262C278.066 260.555 270.063 263.604 261.886 266.41C267.017 248.447 267.408 230.026 263.059 211.148C258.202 190.099 247.116 173.645 229.801 161.788C225.319 158.722 221.752 156.404 219.1 154.834C214.677 142.983 209.47 131.47 203.478 120.294C203.388 120.127 203.339 119.94 203.336 119.75C203.332 119.56 203.374 119.372 203.458 119.202C204.106 117.872 205.095 116.67 206.424 115.594C216.424 107.511 226.561 99.8123 236.836 92.4975C237.911 91.7293 238.8 91.903 239.501 93.0186C240.69 94.8957 241.762 96.706 242.718 98.4496C243.165 99.2712 245.553 104.171 249.882 113.149C262.969 140.311 276.523 169.798 290.545 201.609C292.081 205.096 293.344 207.694 294.332 209.405Z" fill="#ABC4FF"/>
<path d="M243.219 214.585C245.583 221.199 248.593 227.495 252.247 233.473C252.821 234.415 253.119 235.16 253.139 235.708C253.165 236.703 252.661 237.438 251.626 237.912C249.902 238.707 247.287 239.676 243.78 240.818C232.343 244.533 223.876 247.171 218.378 248.734C213.228 250.191 205.913 252.305 196.434 255.077C191.484 256.52 186.624 257.829 181.854 259.005C175.515 260.575 170.631 261.724 167.204 262.452C160.157 263.955 154.041 265.004 148.857 265.599C142.725 266.3 136.579 267.138 130.42 268.114C117.661 270.144 106.465 271.464 96.8317 272.072C94.9011 272.192 90.9799 272.459 85.0679 272.873C84.2395 272.927 82.5829 272.76 80.0978 272.372C77.3723 271.951 75.7189 272.262 74.276 274.557C72.6794 277.115 71.3033 279.156 70.1476 280.679C65.3646 287.012 60.7452 293.472 56.2895 300.058C56.0958 300.339 56.1726 300.489 56.52 300.509C56.854 300.529 57.1446 300.242 57.3918 299.648C58.4005 300.195 59.7499 300.533 61.44 300.66C65.3412 300.913 69.2091 301.07 73.0435 301.131C73.3708 301.137 75.0776 301.024 78.1639 300.79C79.894 300.663 81.6109 300.62 83.3143 300.66C94.6774 300.954 106.151 300.863 117.734 300.389C117.796 300.386 117.857 300.399 117.912 300.427C117.967 300.455 118.014 300.497 118.048 300.549C118.081 300.601 118.1 300.66 118.103 300.722C118.106 300.784 118.093 300.845 118.065 300.9L114.217 308.235C109.674 307.186 105.646 306.662 102.132 306.662C89.8476 306.669 81.7712 306.575 77.9034 306.381C77.4357 306.355 72.626 305.937 63.4741 305.129C61.6838 304.975 60.2208 305.008 59.0852 305.229C57.2949 305.576 55.8353 305.64 54.7063 305.419C54.6009 305.397 54.4916 305.406 54.391 305.444C54.2905 305.482 54.2027 305.549 54.1378 305.635C54.0729 305.722 54.0335 305.826 54.0242 305.935C54.0148 306.044 54.036 306.153 54.0851 306.251L54.2755 306.632C54.5627 307.18 55.017 307.463 55.6382 307.483C56.8607 307.524 58.0464 307.817 59.1954 308.365C60.0171 308.759 61.1928 308.997 62.7226 309.077C65.6819 309.237 67.1382 309.985 67.0914 311.321C64.2189 311.107 62.5389 311.228 62.0512 311.682L30.8079 309.868C30.7077 307.878 31.5627 306.308 33.3731 305.159C35.1433 304.043 36.2188 303.278 36.5996 302.864C38.8442 300.479 41.0286 299.076 43.0026 296.762C46.8003 292.313 52.2514 287.483 55.7484 283.615C60.5515 278.304 65.4247 273.054 70.3681 267.863C70.6086 267.616 70.7188 267.319 70.6988 266.971L70.5485 264.276C70.8491 264.142 71.1664 264.069 71.5004 264.055C71.173 264.643 71.2733 265.061 71.801 265.308C73.0569 265.909 74.1357 265.809 75.0375 265.007C76.3201 266.664 78.0336 267.235 80.178 266.721C84.146 267.803 87.7433 268.087 90.9699 267.573C106.575 265.067 119.745 263.331 130.48 262.362C135.036 261.948 138.406 260.301 140.59 257.422C140.537 257.682 140.544 257.88 140.611 258.013C140.735 258.277 140.946 258.492 141.208 258.621C141.47 258.75 141.768 258.787 142.053 258.725C148.573 257.295 153.186 256.346 155.891 255.879C160.781 255.037 165.371 254.042 169.659 252.893C170.808 252.585 174.776 251.707 181.564 250.257C185.826 249.342 189.77 248.404 193.398 247.442C201.086 245.404 208.699 243.353 216.234 241.289C218.211 241.884 219.03 241.246 218.689 239.375C218.669 239.262 218.682 239.178 218.729 239.125C218.762 239.085 218.796 239.048 218.829 239.015C218.969 238.874 219.073 238.938 219.14 239.205C219.16 239.285 219.176 239.365 219.19 239.446C219.07 239.693 219.026 239.9 219.06 240.067C219.1 240.301 219.233 240.381 219.46 240.307C219.688 240.234 219.891 240.053 220.072 239.766C222.256 240.107 223.589 239.529 224.07 238.033C224.17 237.712 224.147 237.401 224 237.101C215.148 218.697 207.426 199.849 200.833 180.556C200.559 179.754 199.597 177.183 197.947 172.84C196.684 169.554 195.722 165.586 194.48 162.429C192.329 156.918 191.049 153.688 190.642 152.74C190.214 151.751 189.693 151.18 189.079 151.026C188.478 150.886 188.304 150.532 188.558 149.964C192.305 141.667 195.468 134.797 198.047 129.352C198.969 127.408 199.39 125.575 199.881 123.47C199.958 123.141 200.154 122.852 200.432 122.659C201.247 122.091 201.841 122.278 202.215 123.22C203.792 127.268 204.934 130.104 205.642 131.727C212.67 147.846 220.132 164.634 228.028 182.089C232.991 193.071 238.055 203.903 243.219 214.585Z" fill="#2E2B2C"/>
<path d="M219.561 238.944C219.494 239.192 219.37 239.359 219.19 239.445C219.176 239.365 219.16 239.285 219.14 239.205C219.073 238.938 218.969 238.874 218.829 239.015C218.796 239.048 218.762 239.085 218.729 239.125C218.682 239.178 218.669 239.262 218.689 239.375C219.029 241.246 218.211 241.884 216.234 241.289C217.076 240.788 217.333 240.381 217.005 240.067C215.469 238.617 214.116 236.653 212.947 234.175C207.483 222.618 202.763 210.734 198.788 198.522C197.265 193.853 195.325 187.467 192.967 179.364C192.546 177.901 191.784 175.72 190.682 172.82C189.887 170.723 189.229 168.462 188.708 166.037C187.913 162.389 186.881 162.322 185.612 165.836C183.641 171.274 181.066 177.48 177.886 184.454C173.163 194.795 170.411 200.881 169.629 202.711C165.02 213.553 162.281 220.09 161.413 222.321C158.707 229.255 156.192 236.643 153.867 244.486C153.513 245.675 152.919 246.86 152.084 248.043C151.676 248.617 151.442 248.554 151.382 247.853C151.195 245.762 151.282 243.958 151.643 242.442C154.408 230.698 157.478 220.818 160.852 212.801C163.524 206.462 165.798 200.947 167.675 196.258C169.212 192.397 171.593 186.932 174.82 179.865C179.256 170.145 183.461 160.973 187.435 152.349C187.883 151.38 188.047 151.414 187.926 152.449C187.913 152.589 188.01 152.92 188.217 153.441C189.279 156.167 189.9 157.86 190.081 158.521C190.649 160.692 191.2 162.393 191.734 163.622C193.231 167.055 194.279 169.778 194.881 171.788C198.635 184.28 200.909 191.602 201.704 193.753C206.735 207.3 210.365 216.529 212.596 221.439C214.995 226.736 217.219 232.104 219.27 237.542C219.45 238.016 219.547 238.484 219.561 238.944Z" fill="#C1D3FE"/>
<path d="M261.886 266.41C256.128 268.648 250.206 270.615 244.12 272.312C240.192 273.408 237.016 274.283 234.591 274.938C231.405 275.799 228.188 276.567 224.942 277.242C212.937 279.727 201.571 281.952 190.842 283.916C190.528 283.969 188.454 284.263 184.62 284.798C182.689 285.065 180.658 285.476 178.527 286.03C178.088 286.142 177.687 286.374 177.371 286.701C177.054 287.029 176.834 287.438 176.734 287.884L174.279 299.177C174.175 299.645 173.918 300.064 173.547 300.368C173.176 300.671 172.714 300.841 172.235 300.85L123.937 301.551L120.8 300.62C123.012 298.442 124.568 295.933 125.47 293.094C125.515 292.952 125.523 292.8 125.491 292.654C125.459 292.508 125.39 292.372 125.289 292.262C125.189 292.151 125.061 292.069 124.918 292.023C124.776 291.978 124.624 291.97 124.478 292.002C123.93 292.116 123.422 292.516 122.955 293.205C120.557 292.931 117.911 293.198 115.019 294.006C114.787 294.069 114.578 294.197 114.417 294.375C114.256 294.553 114.149 294.774 114.109 295.012C114.069 295.249 114.097 295.494 114.191 295.717C114.285 295.94 114.44 296.132 114.638 296.271L116.341 297.453C113.155 297.834 110.186 298.148 107.433 298.395C104.901 298.622 101.922 298.739 98.4951 298.746C91.855 298.773 85.2182 298.876 78.5848 299.056C73.9019 298.916 69.2091 298.776 64.5062 298.636C63.5242 298.609 62.8929 298.261 62.6124 297.593C67.5156 291.441 72.0415 285.061 76.1899 278.455C76.6776 277.68 77.2688 277.025 77.9635 276.491C78.558 276.036 79.3496 275.779 80.3383 275.719C96.4109 274.73 112.116 273.528 127.454 272.112C130.106 271.865 133.035 271.507 136.242 271.04C139.468 270.572 142.394 270.188 145.019 269.887C146.75 269.687 150.297 268.972 155.661 267.743C159.322 266.895 162.859 266.17 166.273 265.569C176.159 263.825 185.421 261.664 194.059 259.085C199.583 257.435 206.006 255.608 213.328 253.604C225.105 250.391 236.154 246.864 246.475 243.023C246.522 243.003 247.718 242.632 250.062 241.911C252.568 241.139 256.656 239.446 256.265 236.269C256.218 235.895 255.807 234.693 255.033 232.662C253.476 228.594 251.355 224.749 248.67 221.128L219.1 154.834C221.752 156.404 225.319 158.722 229.801 161.788C247.116 173.645 258.202 190.099 263.059 211.148C267.408 230.026 267.017 248.447 261.886 266.41Z" fill="#ABC4FF"/>
<path d="M398.659 247.144C397.242 246.69 395.816 246.509 394.38 246.603L409.12 243.487C409.207 243.467 409.25 243.5 409.25 243.587L409.28 243.918C409.287 243.998 409.25 244.051 409.17 244.078L398.659 247.144Z" fill="#3D0117"/>
<path d="M305.886 212.791C304.75 213.546 303.454 214.024 301.998 214.224C301.946 214.232 301.897 214.253 301.856 214.285C301.814 214.317 301.781 214.359 301.76 214.407C301.739 214.455 301.731 214.507 301.735 214.56C301.74 214.612 301.758 214.662 301.787 214.705L301.998 215.016C302.091 215.15 302.218 215.226 302.379 215.246L305.094 215.557C301.433 216.459 298.968 216.883 297.699 216.83C296.523 216.776 295.875 215.798 295.755 213.894C295.648 213.426 295.915 213.156 296.557 213.082C296.978 213.142 297.081 212.925 296.867 212.431C296.026 210.453 295.618 208.606 295.645 206.89L297.97 211.188C298.23 211.67 298.616 212.072 299.087 212.353C299.558 212.633 300.096 212.781 300.645 212.781L305.886 212.791Z" fill="#DAEAEC" fill-opacity="0.996"/>
<path d="M294.332 209.405L295.104 210.968C294.209 212.812 293.951 212.29 294.332 209.405Z" fill="#D09EA9"/>
<path d="M347.119 212.992L333.021 219.285C332.515 219.512 332.096 219.894 331.823 220.375C331.551 220.857 331.44 221.412 331.508 221.96C331.868 224.933 331.31 227.635 329.834 230.066C329.493 230.634 329.133 230.644 328.752 230.097L327.149 227.752C326.568 226.903 326.648 226.125 327.389 225.417C328.177 224.669 328.799 223.747 329.253 222.651C329.721 221.516 329.483 221.342 328.541 222.13L325.265 224.856C325.157 224.945 325.069 225.053 325.005 225.176C324.942 225.298 324.904 225.431 324.894 225.567C324.761 227.812 325.285 229.475 326.467 230.557C327.536 231.526 328.107 232.405 328.181 233.193C327.393 232.338 326.481 232.077 325.445 232.411C323.067 230.14 321.955 227.485 322.108 224.445C322.289 220.868 331.738 217.16 336.748 214.896C338.118 214.281 339.681 213.747 341.438 213.292C342.907 212.918 344.46 212.401 346.097 211.739C346.179 211.705 346.267 211.69 346.355 211.694C346.443 211.697 346.53 211.721 346.609 211.762C346.688 211.803 346.758 211.86 346.813 211.931C346.868 212.001 346.908 212.083 346.929 212.17L347.119 212.992Z" fill="#DAEAEC" fill-opacity="0.996"/>
<path d="M296.557 213.082C295.915 213.156 295.648 213.426 295.755 213.894C295.495 213.707 295.401 213.289 295.475 212.641C295.902 212.675 296.263 212.822 296.557 213.082Z" fill="#D09EA9"/>
<path d="M243.219 214.585C244.788 217.504 246.328 220.313 247.838 223.012C247.958 223.233 248.215 223.443 248.609 223.643C248.903 223.79 248.997 223.707 248.89 223.393C248.643 222.665 248.569 221.91 248.67 221.128C251.355 224.749 253.476 228.593 255.033 232.662C255.807 234.693 256.218 235.895 256.265 236.269C256.656 239.445 252.568 241.139 250.062 241.91C247.718 242.632 246.522 243.003 246.475 243.023C236.154 246.864 225.105 250.391 213.328 253.604C206.006 255.608 199.583 257.435 194.059 259.085C185.421 261.664 176.159 263.825 166.273 265.568C162.859 266.17 159.322 266.895 155.661 267.743C150.297 268.972 146.75 269.687 145.019 269.887C142.394 270.188 139.468 270.572 136.242 271.04C133.035 271.507 130.106 271.865 127.454 272.112C112.116 273.528 96.4109 274.73 80.3383 275.719C79.3496 275.779 78.558 276.036 77.9635 276.491C77.2687 277.025 76.6775 277.68 76.1899 278.455C72.0415 285.061 67.5156 291.441 62.6123 297.593L62.5422 295.92C62.6357 295.506 62.5322 295.245 62.2316 295.138C61.7974 294.978 61.48 295.045 61.2796 295.339C59.3023 296.307 58.0063 297.744 57.3918 299.648C57.1446 300.242 56.854 300.529 56.52 300.509C56.1726 300.489 56.0958 300.339 56.2895 300.058C60.7452 293.472 65.3646 287.012 70.1476 280.679C71.3033 279.156 72.6794 277.115 74.276 274.557C75.7189 272.262 77.3723 271.951 80.0978 272.372C82.5828 272.76 84.2395 272.927 85.0679 272.873C90.9799 272.459 94.9011 272.192 96.8317 272.072C106.465 271.464 117.661 270.144 130.42 268.114C136.579 267.138 142.725 266.3 148.857 265.599C154.041 265.004 160.157 263.955 167.204 262.452C170.631 261.724 175.515 260.575 181.854 259.005C186.624 257.829 191.484 256.52 196.434 255.077C205.913 252.305 213.228 250.191 218.378 248.734C223.876 247.171 232.343 244.532 243.78 240.818C247.287 239.676 249.902 238.707 251.626 237.912C252.661 237.438 253.165 236.703 253.139 235.708C253.119 235.16 252.821 234.415 252.247 233.473C248.593 227.495 245.583 221.198 243.219 214.585ZM62.6016 293.374C62.6388 293.383 62.6779 293.382 62.7169 293.37C62.7558 293.358 62.7937 293.337 62.8284 293.307C62.8631 293.277 62.894 293.238 62.9193 293.194C62.9445 293.15 62.9637 293.101 62.9756 293.05C62.9997 292.946 62.993 292.84 62.9569 292.755C62.9209 292.669 62.8585 292.611 62.7834 292.594C62.7462 292.585 62.7071 292.587 62.6682 292.598C62.6292 292.61 62.5913 292.631 62.5566 292.661C62.5219 292.692 62.491 292.73 62.4657 292.774C62.4405 292.818 62.4214 292.867 62.4094 292.918C62.3854 293.022 62.3921 293.128 62.4281 293.214C62.4641 293.299 62.5266 293.357 62.6016 293.374Z" fill="#DAEAEC" fill-opacity="0.996"/>
<path d="M220.072 239.766C219.891 240.053 219.688 240.234 219.46 240.307C219.233 240.381 219.1 240.301 219.06 240.067C219.026 239.9 219.07 239.693 219.19 239.446C219.37 239.359 219.494 239.192 219.561 238.945L220.072 239.766Z" fill="#3D0117"/>
<path d="M331.017 249.696C329.908 250.672 328.405 251.256 326.507 251.45C324.143 251.884 321.724 252.198 319.253 252.392C316.307 252.632 313.895 252.94 312.018 253.314C303.431 255.017 298.32 255.638 292.208 258.324C285.908 261.096 279.843 263.651 274.011 265.989C272.374 266.644 268.046 268.317 261.025 271.01C257.451 272.379 253.035 273.788 247.778 275.238C242.3 276.755 236.826 278.234 231.355 279.677L192.035 287.493L181.704 289.587C180.729 289.781 180.107 290.359 179.84 291.321C178.237 297.012 177.218 300.469 176.784 301.692C174.319 308.699 170.692 319.261 165.902 333.376C164.87 336.422 164.649 339.348 163.798 342.915C163.796 342.953 163.78 342.988 163.753 343.013C163.726 343.038 163.689 343.052 163.652 343.051C163.615 343.049 163.58 343.033 163.555 343.006C163.529 342.979 163.516 342.943 163.517 342.905C163.183 341.042 163.29 338.977 163.838 336.713C164.846 332.524 166.069 328.433 167.505 324.438L170.471 313.255C172.028 310.009 173 306.762 173.387 303.515C173.395 303.431 173.386 303.347 173.361 303.267C173.335 303.186 173.292 303.113 173.237 303.05C173.181 302.988 173.113 302.938 173.037 302.905C172.961 302.871 172.879 302.854 172.796 302.854H123.666C123.352 302.854 123.195 302.697 123.195 302.383V301.862C123.195 301.688 123.279 301.598 123.446 301.592L123.937 301.551L172.235 300.85C172.714 300.841 173.176 300.671 173.547 300.368C173.918 300.064 174.175 299.645 174.279 299.177L176.734 287.884C176.834 287.438 177.054 287.029 177.371 286.701C177.687 286.374 178.088 286.142 178.527 286.03C180.658 285.476 182.689 285.065 184.62 284.797C188.454 284.263 190.528 283.969 190.842 283.916C201.571 281.952 212.937 279.727 224.942 277.242C228.188 276.567 231.405 275.799 234.591 274.937C237.016 274.283 240.192 273.408 244.12 272.312C250.206 270.615 256.128 268.648 261.886 266.41C270.063 263.605 278.066 260.555 285.895 257.262C287.037 256.781 288.063 256.387 288.971 256.079C290.14 255.678 291.159 255.288 292.028 254.907C298.407 252.095 305.117 250.541 312.158 250.247C315.485 250.107 318.832 249.416 321.798 249.336C324.169 249.269 327.242 249.389 331.017 249.696Z" fill="#DAEAEC" fill-opacity="0.996"/>
<path d="M326.508 251.45C326.801 251.664 327.049 251.767 327.249 251.76C326.287 253.694 323.652 253.714 321.818 254.195C319.213 254.209 317.529 254.282 316.768 254.416C310.235 255.558 303.828 257.205 297.549 259.356C296.126 259.843 294.787 260.478 293.531 261.26C291.333 262.629 290.07 263.401 289.743 263.574C288.24 264.369 286.744 265.178 285.254 265.999C285.14 266.059 285.083 266.153 285.083 266.28V266.601C285.083 266.661 285.11 266.677 285.164 266.651C287.849 265.321 290.451 263.835 292.969 262.192C294.199 261.39 296.219 260.615 299.032 259.867C303.3 258.731 307.613 257.659 311.968 256.65L311.096 261.57C303.467 263.387 297.679 265.288 293.731 267.272C288.26 270.017 283.059 272.239 278.129 273.935C275.257 274.917 270.955 276.534 265.223 278.785C263.486 279.473 262.257 280.245 261.536 281.1C261.228 281.461 261.148 281.868 261.295 282.322L279.372 337.144C279.536 337.644 279.852 338.082 280.278 338.396C280.703 338.71 281.216 338.885 281.747 338.897C285.107 338.971 289.439 338.961 294.743 338.867C296.447 338.834 298.133 339.051 299.803 339.518C300.164 339.619 300.415 339.846 300.555 340.2L324.423 399.911C323.308 401.006 322.399 400.692 321.698 398.969C318.712 391.654 315.662 384.336 312.549 377.014C311.327 374.149 310.766 371.654 309.403 369.078C308.701 367.742 307.903 365.775 307.008 363.176C305.251 358.099 304.112 355.07 303.591 354.088C301.874 350.881 300.682 347.905 300.014 345.16C298.952 340.851 296.537 342.504 293.791 342.154C291.433 341.853 289.095 341.599 286.777 341.392C284.192 341.342 278.941 341.412 277.799 338.847C277.258 337.631 276.055 334.161 274.191 328.436C272.762 324.054 271.566 320.59 270.604 318.045C269.622 315.433 268.647 312.367 267.678 308.846C266.997 306.381 265.945 303.348 264.522 299.748C263.827 298.004 261.903 293.121 258.75 285.098C258.563 284.617 258.226 284.463 257.738 284.637C250.149 287.282 243.138 291.157 236.705 296.261C236.465 296.454 236.391 296.702 236.485 297.002L237.848 301.151L235.613 302.814C232.48 302.72 229.501 303.756 226.675 305.92C224.223 307.797 221.832 309.634 219.501 311.431C219.298 311.587 219.06 311.688 218.809 311.725C218.558 311.762 218.303 311.733 218.068 311.642C216.645 311.094 215.255 310.303 213.899 309.267C211.721 307.604 209.236 305.69 206.444 303.525C205.101 302.971 203.729 303.181 202.326 304.157C198.037 307.129 194.102 309.411 190.522 311.001C189.647 307.44 189.456 304.484 189.951 302.133C191.814 302.26 193.788 301.969 195.873 301.261C196.207 301.722 196.935 301.685 198.057 301.151C199.286 300.556 199.931 299.878 199.991 299.116C200.038 299.01 200.088 298.903 200.141 298.796C201.19 298.762 202.052 298.418 202.727 297.764C202.791 297.702 202.837 297.623 202.859 297.536C202.881 297.449 202.878 297.357 202.851 297.272C202.824 297.187 202.774 297.11 202.706 297.052C202.638 296.994 202.555 296.956 202.466 296.942C201.05 296.748 200.131 297.119 199.71 298.054C196.771 297.453 193.955 297.51 191.263 298.225C190.535 298.031 190.041 298.251 189.78 298.886C188.685 301.498 187.987 304.163 187.686 306.882C187.091 310.269 186.6 312.407 186.213 313.295C185.071 315.941 184.055 318.629 183.167 321.362C181.544 326.345 180.725 328.857 180.712 328.897C177.686 337.494 174.122 347.932 170.02 360.21C169.679 361.226 169.048 363.3 168.126 366.433C167.752 367.722 167.158 368.728 166.343 369.449C166.256 369.523 166.149 369.572 166.036 369.588C165.923 369.604 165.807 369.587 165.703 369.54C165.599 369.492 165.51 369.416 165.448 369.32C165.386 369.224 165.352 369.113 165.351 368.998C165.391 361.543 164.873 354.369 163.798 347.475C163.764 347.25 163.675 347.037 163.538 346.855C163.402 346.673 163.222 346.528 163.016 346.432L150.04 340.38C153.153 336.633 155.942 332.424 158.407 327.755C160.003 326.125 161.54 323.847 163.016 320.921C163.277 320.413 163.631 320.173 164.078 320.199C164.452 320.219 164.659 320.413 164.699 320.78C164.833 322.003 165.454 322.714 166.563 322.915C166.89 322.975 167.104 323.165 167.204 323.486L167.505 324.438C166.069 328.433 164.846 332.524 163.838 336.713C163.29 338.977 163.183 341.041 163.517 342.905C163.516 342.942 163.529 342.979 163.555 343.006C163.58 343.033 163.615 343.049 163.652 343.051C163.689 343.052 163.726 343.038 163.753 343.013C163.78 342.988 163.796 342.952 163.798 342.915C164.649 339.348 164.87 336.422 165.902 333.376C170.692 319.261 174.319 308.699 176.784 301.692C177.218 300.469 178.237 297.012 179.84 291.321C180.107 290.359 180.729 289.781 181.704 289.587L192.035 287.493C196.925 288.662 202.022 288.472 207.326 286.922C208.261 286.648 209.103 286.478 209.851 286.411C212.075 286.21 214.16 286.25 216.224 285.719C221.247 284.417 226.394 283.121 231.665 281.831C232.681 281.584 232.704 281.27 231.735 280.89C231.642 280.856 231.515 280.452 231.355 279.677C236.826 278.234 242.3 276.754 247.778 275.238C253.035 273.788 257.451 272.379 261.025 271.009C268.046 268.317 272.374 266.644 274.011 265.989C279.843 263.651 285.909 261.096 292.208 258.324C298.32 255.638 303.431 255.017 312.018 253.314C313.895 252.94 316.307 252.632 319.253 252.392C321.724 252.198 324.143 251.884 326.508 251.45ZM214.921 300.85C216.311 302.039 217.837 302.249 219.501 301.481C221.979 300.332 225.513 298.98 230.102 297.423C230.329 297.343 230.57 297.203 230.823 297.002C231.211 296.682 231.428 296.501 231.475 296.461C232.797 295.332 232.597 294.831 230.874 294.958L211.865 296.291C210.456 296.384 210.289 296.892 211.364 297.814L214.921 300.85Z" fill="#2E2B2C"/>
<path d="M321.818 254.195L323.05 254.235C323.103 254.238 323.155 254.251 323.202 254.274C323.25 254.296 323.293 254.328 323.328 254.367C323.364 254.406 323.391 254.452 323.409 254.501C323.426 254.551 323.434 254.604 323.431 254.656C323.431 254.77 323.401 254.89 323.341 255.017L311.968 256.65C307.613 257.659 303.3 258.731 299.032 259.867C296.219 260.615 294.199 261.39 292.97 262.192C290.451 263.835 287.849 265.321 285.164 266.651C285.11 266.677 285.083 266.661 285.083 266.601V266.28C285.083 266.153 285.14 266.059 285.254 265.999C286.744 265.178 288.24 264.369 289.743 263.574C290.07 263.401 291.333 262.629 293.531 261.26C294.787 260.478 296.126 259.844 297.549 259.356C303.828 257.205 310.235 255.558 316.768 254.416C317.529 254.282 319.213 254.209 321.818 254.195Z" fill="#F4F0E1" fill-opacity="0.996"/>
<path d="M290.214 349.328L283.711 341.913C283.537 341.713 283.58 341.603 283.841 341.583L286.777 341.392C289.095 341.599 291.433 341.853 293.791 342.154C296.537 342.504 298.952 340.851 300.014 345.16C300.682 347.905 301.874 350.881 303.591 354.088C304.112 355.07 305.251 358.099 307.008 363.176C307.903 365.775 308.701 367.742 309.403 369.078C310.766 371.654 311.327 374.149 312.549 377.014C315.662 384.336 318.712 391.654 321.698 398.969C322.399 400.692 323.308 401.006 324.423 399.911L347.039 400.201C348.442 400.549 349.888 400.569 351.378 400.262L373.663 400.753C373.878 400.758 374.09 400.704 374.276 400.596C374.462 400.489 374.615 400.333 374.718 400.145C374.821 399.957 374.871 399.744 374.862 399.53C374.852 399.315 374.784 399.107 374.665 398.929C371.539 394.259 369.334 391.534 367.731 387.205C365.066 379.99 360.466 371.784 357.22 364.319C354.955 359.121 352.684 353.931 350.406 348.747C350.312 346.269 349.995 344.468 349.454 343.346C347.777 339.832 346.204 335.991 344.734 331.823C343.706 328.924 342.627 326.372 341.498 324.167C339.554 320.386 338.365 317.838 337.931 316.522C337.009 313.709 334.353 306.578 329.964 295.128C327.807 289.497 326.347 285.091 325.586 281.912C325.405 281.157 325.345 280.632 325.405 280.338C325.793 278.394 326.497 278.291 327.52 280.028C329.504 283.401 332.91 289.657 337.74 298.796C338.916 301.014 339.905 303.238 340.706 305.469C341.889 308.766 342.36 311.231 343.963 314.658C347.684 322.627 349.982 327.183 350.857 328.326C354.892 333.596 357.624 338.176 359.053 342.064C360.577 346.212 362.146 350.34 363.763 354.449C364.718 356.887 369.024 364.88 376.679 378.427C377.133 379.229 378.279 381.43 380.116 385.031C381.165 387.088 382.297 388.875 383.513 390.392C385.597 393.004 386.876 394.68 387.351 395.422C390.998 401.227 393.38 405.118 394.495 407.095C394.909 407.83 395.37 408.562 395.878 409.29C395.931 409.365 395.962 409.454 395.968 409.546C395.974 409.637 395.954 409.729 395.911 409.809C395.869 409.89 395.804 409.956 395.726 410.001C395.647 410.045 395.558 410.066 395.467 410.061C391.245 409.894 383.977 409.727 373.663 409.56C366.014 409.434 359.334 409.44 353.622 409.58C340.356 409.908 328.334 410.025 317.559 409.931C316.704 409.925 316.133 409.52 315.846 408.719C314.363 404.53 312.98 400.943 311.697 397.957C310.408 394.937 309.249 392.038 308.22 389.259C307.085 386.2 305.932 383.267 304.763 380.461C299.653 368.25 295.778 358.791 293.14 352.084C292.605 350.708 291.63 349.789 290.214 349.328Z" fill="#C1D3FE"/>
<path d="M286.777 341.392L283.841 341.583C283.58 341.603 283.537 341.713 283.711 341.913L290.214 349.328C285.845 349.241 281.436 349.241 276.987 349.328C274.088 349.388 271.907 349.549 270.444 349.809C268.173 350.21 266.018 350.35 263.981 350.23C263.794 350.218 263.607 350.246 263.433 350.313C263.258 350.379 263.1 350.483 262.969 350.616C262.838 350.749 262.737 350.908 262.673 351.084C262.609 351.259 262.583 351.447 262.598 351.633C262.832 354.606 262.882 357.024 262.748 358.888C262.715 359.329 262.645 359.679 262.538 359.94C262.456 360.149 262.313 360.328 262.127 360.455C261.942 360.581 261.723 360.65 261.499 360.651C261.275 360.652 261.055 360.586 260.869 360.461C260.682 360.336 260.538 360.158 260.454 359.95C259.659 358.039 258.75 356.179 257.728 354.369C255.163 349.809 254.391 346.212 252.688 340.14C250.57 332.571 247.644 324.538 243.91 316.041C243.339 314.738 243.148 313.105 242.607 311.922C240.971 308.369 239.384 304.778 237.848 301.151L236.485 297.002C236.391 296.702 236.465 296.454 236.705 296.261C243.138 291.157 250.149 287.283 257.738 284.637C258.226 284.463 258.563 284.617 258.75 285.098C261.903 293.121 263.827 298.004 264.522 299.748C265.945 303.348 266.997 306.381 267.678 308.846C268.647 312.367 269.622 315.433 270.604 318.045C271.566 320.59 272.762 324.054 274.191 328.436C276.055 334.161 277.258 337.631 277.799 338.847C278.941 341.412 284.192 341.342 286.777 341.392Z" fill="#2E2B2C"/>
<path d="M120.8 300.62C118.489 305.162 116.619 310.48 115.189 316.572C112.784 322.337 110.499 327.992 108.335 333.536C106.137 339.188 103.736 344.756 101.13 350.24C100.583 351.396 100.048 352.685 99.5272 354.108C99.0463 355.424 98.5486 356.733 98.0342 358.036C94.9146 365.899 92.2291 372.773 89.9779 378.658C89.4902 379.927 86.9317 384.199 82.3023 391.474C80.8661 393.725 79.216 395.469 77.3523 396.704C72.3087 400.038 66.9913 402.309 61.3999 403.518C56.9977 404.473 52.5286 404.995 47.9928 405.081C38.3131 405.268 28.5934 404.761 18.8336 403.558C27.9254 403.144 36.8936 402.753 45.7382 402.386C52.3583 402.112 59.3591 400.579 66.7408 397.787C69.6667 396.684 72.5526 394.73 75.4384 393.207C76.7678 392.506 77.9234 391.551 78.9054 390.341C80.6957 388.464 81.828 386.931 82.3023 385.742C84.1795 381.013 86.3939 375.562 88.9458 369.389C91.2972 363.718 93.4683 358.253 95.459 352.996C100.536 339.582 103.722 331.352 105.018 328.306C108.051 321.178 110.049 316.278 111.011 313.606C111.131 313.259 111.007 313.085 110.64 313.085C106.912 313.085 100.295 312.661 90.7895 311.812C88.9057 311.642 87.3024 311.141 85.8695 310.48C84.4801 309.838 84.5469 309.571 86.07 309.678C87.5329 309.778 90.7561 310.022 95.7396 310.409C95.793 310.416 98.2647 310.73 103.155 311.351C105.8 311.685 108.462 311.789 111.141 311.662C111.475 311.649 111.765 311.528 112.013 311.301C112.921 310.46 113.656 309.437 114.217 308.235L118.065 300.9C118.093 300.845 118.106 300.784 118.103 300.722C118.1 300.66 118.081 300.601 118.048 300.549C118.014 300.497 117.967 300.455 117.912 300.427C117.857 300.399 117.796 300.386 117.734 300.389C106.151 300.863 94.6774 300.954 83.3144 300.66C81.6109 300.62 79.8941 300.663 78.1639 300.79C75.0777 301.024 73.3709 301.137 73.0435 301.131C69.2091 301.07 65.3413 300.913 61.44 300.66C66.9712 300.66 72.3421 300.416 77.5527 299.928C78.1472 299.875 78.4913 299.584 78.5848 299.056C85.2182 298.876 91.855 298.772 98.4951 298.746C101.922 298.739 104.901 298.622 107.433 298.395C110.186 298.148 113.155 297.834 116.341 297.453C116.802 297.607 117.524 297.553 118.506 297.293C119.174 297.119 119.775 296.775 120.309 296.261C121.291 295.312 122.173 294.293 122.955 293.204C123.422 292.516 123.93 292.116 124.478 292.002C124.624 291.97 124.776 291.978 124.918 292.023C125.061 292.069 125.189 292.151 125.289 292.262C125.39 292.372 125.459 292.508 125.491 292.654C125.523 292.8 125.515 292.952 125.47 293.094C124.568 295.933 123.012 298.442 120.8 300.62Z" fill="#DAEAEC" fill-opacity="0.996"/>
<path d="M122.955 293.204C122.173 294.293 121.291 295.312 120.309 296.261C119.775 296.775 119.174 297.119 118.506 297.293C117.524 297.553 116.802 297.607 116.341 297.453L114.638 296.271C114.44 296.132 114.285 295.94 114.191 295.717C114.097 295.494 114.069 295.249 114.109 295.012C114.149 294.774 114.256 294.553 114.417 294.375C114.578 294.197 114.787 294.069 115.019 294.006C117.911 293.198 120.557 292.931 122.955 293.204Z" fill="#9B9C9F"/>
<path d="M200.141 298.796L199.71 298.054C200.131 297.119 201.05 296.748 202.466 296.942C202.554 296.956 202.638 296.994 202.706 297.052C202.774 297.11 202.824 297.187 202.851 297.272C202.878 297.357 202.881 297.449 202.859 297.536C202.837 297.623 202.791 297.702 202.726 297.764C202.052 298.418 201.19 298.762 200.141 298.796Z" fill="#DAEAEC" fill-opacity="0.996"/>
<path d="M191.263 298.225C190.341 299.28 189.904 300.583 189.951 302.133C189.456 304.484 189.647 307.44 190.522 311.001C190.208 311.936 189.81 312.39 189.329 312.363C189.156 312.156 189.069 311.909 189.069 311.622C189.269 310.687 189.159 310.272 188.738 310.379C189.039 309.364 188.969 308.425 188.528 307.564C188.307 307.27 188.027 307.043 187.686 306.882C187.987 304.163 188.685 301.498 189.78 298.886C190.041 298.251 190.535 298.031 191.263 298.225Z" fill="#9B9C9F"/>
<path d="M199.991 299.117C199.931 299.878 199.286 300.556 198.057 301.151C196.935 301.685 196.207 301.722 195.873 301.261L199.991 299.117Z" fill="#93888C"/>
<path d="M120.8 300.62L123.937 301.551L123.446 301.592C123.279 301.598 123.195 301.688 123.195 301.862V302.383C123.195 302.697 123.352 302.854 123.666 302.854H172.796C172.879 302.853 172.961 302.871 173.037 302.905C173.113 302.938 173.181 302.988 173.237 303.05C173.292 303.113 173.335 303.186 173.361 303.267C173.386 303.347 173.395 303.431 173.387 303.515C173 306.762 172.028 310.009 170.471 313.255L120.46 313.556C120.132 313.562 119.975 313.729 119.989 314.057C120.002 314.324 120.182 314.571 120.53 314.798C120.857 315.012 120.894 315.269 120.64 315.57C120.526 315.703 120.363 315.827 120.149 315.941C117.945 315.794 116.291 316.004 115.189 316.572C116.619 310.48 118.489 305.162 120.8 300.62ZM125.983 305.242C125.976 305.143 125.95 305.047 125.906 304.959C125.862 304.871 125.801 304.792 125.727 304.727C125.652 304.662 125.566 304.613 125.472 304.582C125.378 304.55 125.279 304.538 125.181 304.545L121.882 304.775C121.684 304.789 121.498 304.882 121.368 305.032C121.237 305.182 121.171 305.379 121.185 305.577L121.209 305.917C121.216 306.016 121.242 306.112 121.286 306.2C121.33 306.289 121.391 306.367 121.466 306.432C121.54 306.497 121.626 306.546 121.72 306.578C121.814 306.609 121.913 306.621 122.011 306.615L125.31 306.384C125.508 306.37 125.694 306.278 125.824 306.127C125.955 305.977 126.021 305.781 126.007 305.582L125.983 305.242Z" fill="black"/>
<path d="M125.181 304.545L121.882 304.775C121.468 304.804 121.156 305.163 121.185 305.577L121.209 305.917C121.238 306.331 121.597 306.644 122.011 306.615L125.31 306.384C125.724 306.355 126.036 305.996 126.007 305.582L125.983 305.242C125.954 304.828 125.595 304.516 125.181 304.545Z" fill="#F4F0E1" fill-opacity="0.996"/>
<path d="M114.217 308.235C113.656 309.437 112.921 310.46 112.013 311.301C111.765 311.528 111.475 311.649 111.141 311.662C108.462 311.789 105.8 311.685 103.155 311.351C98.2646 310.73 95.793 310.416 95.7395 310.409C90.7561 310.022 87.5329 309.778 86.0699 309.678C84.5468 309.571 84.48 309.838 85.8695 310.48C87.3024 311.141 88.9057 311.642 90.7895 311.812C100.295 312.661 106.912 313.085 110.64 313.085C111.007 313.085 111.131 313.259 111.011 313.606C110.049 316.278 108.051 321.178 105.018 328.306C103.722 331.352 100.536 339.582 95.459 352.996C93.4682 358.253 91.2972 363.717 88.9457 369.389C86.3939 375.562 84.1794 381.013 82.3023 385.742C81.828 386.931 80.6957 388.464 78.9054 390.341C76.9281 390.675 75.3749 391.153 74.246 391.774C72.3354 392.81 71.9814 392.422 73.1838 390.612C74.9674 387.927 76.3302 385.973 77.2721 384.75C78.9555 382.579 80.208 380.575 81.0297 378.738C83.2743 373.708 84.8708 369.82 85.8194 367.074C85.9397 366.74 85.8428 366.483 85.5288 366.303C73.1036 359.148 60.0772 353.296 46.4496 348.747L67.0914 311.321C67.1382 309.985 65.6819 309.237 62.7226 309.077C61.1928 308.997 60.0171 308.759 59.1954 308.365C58.0464 307.817 56.8607 307.524 55.6382 307.483C55.017 307.463 54.5627 307.18 54.2755 306.632L54.0851 306.251C54.036 306.153 54.0148 306.044 54.0242 305.935C54.0335 305.826 54.0729 305.722 54.1378 305.635C54.2027 305.548 54.2904 305.482 54.391 305.444C54.4916 305.406 54.6009 305.397 54.7063 305.419C55.8353 305.64 57.2949 305.576 59.0852 305.229C60.2208 305.008 61.6838 304.975 63.4741 305.129C72.626 305.937 77.4357 306.355 77.9034 306.381C81.7712 306.575 89.8476 306.668 102.132 306.662C105.646 306.662 109.674 307.186 114.217 308.235Z" fill="black"/>
<path d="M188.738 310.379L188.528 307.564C188.969 308.425 189.039 309.364 188.738 310.379Z" fill="#616165"/>
<path d="M189.069 311.622C188.782 311.295 188.671 310.88 188.738 310.379C189.159 310.272 189.269 310.687 189.069 311.622Z" fill="#6D4554"/>
<path d="M170.471 313.255L167.505 324.438L167.204 323.486C167.104 323.165 166.89 322.975 166.563 322.915C165.454 322.714 164.833 322.003 164.699 320.78C164.659 320.413 164.452 320.219 164.078 320.199C163.631 320.173 163.277 320.413 163.016 320.921C161.54 323.847 160.003 326.125 158.407 327.755C155.755 329.785 153.343 331.783 151.172 333.747C150.571 334.294 149.909 334.692 149.188 334.939C148.446 335.193 147.698 335.43 146.943 335.651C145.955 335.951 145.597 336.683 145.871 337.845C144.428 337.778 142.925 338.049 141.362 338.657C141.061 338.777 140.754 338.794 140.44 338.707C138.697 338.219 136.93 337.945 135.139 337.885C133.65 337.832 132.123 337.481 130.56 336.833C129.05 336.205 127.634 335.517 126.312 334.769C125.456 332.624 123.867 331.031 121.542 329.989C120.229 329.408 119.658 328.586 118.656 327.674L121.832 316.852C121.877 316.699 121.88 316.537 121.843 316.383C121.806 316.228 121.73 316.085 121.621 315.97C121.513 315.854 121.376 315.769 121.225 315.724C121.074 315.678 120.914 315.674 120.76 315.71C120.587 315.75 120.383 315.827 120.149 315.941C120.363 315.827 120.526 315.703 120.64 315.57C120.894 315.269 120.857 315.012 120.53 314.798C120.182 314.571 120.002 314.324 119.989 314.057C119.975 313.729 120.132 313.562 120.46 313.556L170.471 313.255Z" fill="black"/>
<path d="M118.656 327.674L116.862 334.719C115.78 336.128 115.49 336.833 115.991 336.833C112.29 345.571 108.91 354.332 105.85 363.116C103.993 368.447 102.193 373.18 100.449 377.315C97.5432 384.196 95.6159 388.882 94.6673 391.374C93.4949 394.44 92.7133 399.029 91.2604 402.175C89.7908 405.342 87.937 408.188 85.6991 410.713C84.156 412.456 82.9335 413.478 80.4084 413.699C78.7183 413.859 76.7978 413.893 74.6467 413.799C76.1231 412.436 77.4424 411.157 78.6047 409.961C79.9875 408.528 82.4626 407.586 83.2441 406.244C84.3931 404.28 85.3351 402.73 86.0699 401.594C87.1721 399.884 88.0038 398.281 88.5649 396.785C89.7774 393.578 90.4488 390.973 91.5209 388.347C93.9525 382.362 96.8651 374.873 100.259 365.882C100.332 365.688 100.272 365.351 100.078 364.87C100.018 364.723 99.918 364.603 99.7777 364.509C99.2366 364.148 98.8291 364.262 98.5552 364.85C96.4576 369.432 95.018 372.662 94.2364 374.539C92.867 377.819 91.247 381.016 89.3766 384.129C85.7359 390.181 83.5782 393.682 82.9035 394.63C80.7925 397.603 77.5927 400.131 73.304 402.216C71.9947 402.85 70.8724 403.522 69.9372 404.23C68.4742 405.339 67.2651 405.916 66.3098 405.963C63.3839 406.097 60.4112 406.447 57.3917 407.015C55.882 407.296 54.2955 407.393 52.6321 407.306C50.8685 407.216 47.8624 407.586 45.3874 407.436C43.9645 407.349 43.1729 407.299 43.0126 407.286C41.7433 407.139 36.0251 407.172 25.8578 407.386C23.9807 407.426 22.0401 407.369 20.036 407.216C17.2971 406.995 15.3565 406.902 14.2142 406.935C12.3972 406.995 11.5087 406.113 11.5488 404.29C13.486 403.314 15.9143 403.071 18.8335 403.558C28.5933 404.761 38.313 405.268 47.9927 405.081C52.5285 404.995 56.9976 404.473 61.3999 403.518C66.9912 402.309 72.3086 400.038 77.3522 396.704C79.216 395.469 80.866 393.725 82.3022 391.474C86.9316 384.199 89.4901 379.927 89.9778 378.658C92.229 372.773 94.9145 365.899 98.0341 358.036C98.5485 356.733 99.0462 355.424 99.5272 354.108C100.048 352.685 100.583 351.396 101.13 350.24C103.736 344.756 106.137 339.188 108.335 333.536C110.499 327.992 112.784 322.337 115.189 316.572C116.291 316.004 117.945 315.794 120.149 315.941C120.383 315.827 120.587 315.75 120.76 315.71C120.914 315.674 121.074 315.678 121.225 315.724C121.376 315.769 121.513 315.854 121.621 315.97C121.729 316.085 121.806 316.228 121.843 316.383C121.88 316.537 121.877 316.699 121.832 316.852L118.656 327.674Z" fill="#C1D3FE"/>
<path d="M158.407 327.755C155.942 332.424 153.153 336.633 150.04 340.38L145.871 337.845C145.597 336.683 145.955 335.951 146.943 335.651C147.698 335.43 148.446 335.193 149.188 334.939C149.909 334.692 150.571 334.295 151.172 333.747C153.343 331.783 155.755 329.785 158.407 327.755Z" fill="#9B9C9F"/>
<path d="M78.9054 390.341C77.9234 391.551 76.7678 392.506 75.4384 393.207C72.5526 394.73 69.6667 396.684 66.7408 397.787C59.3591 400.579 52.3583 402.112 45.7382 402.386C36.8936 402.753 27.9254 403.144 18.8336 403.558C15.9144 403.071 13.4861 403.314 11.5489 404.29C10.2061 404.991 9.04043 405.365 8.05176 405.412C8.88678 404.557 9.53477 403.819 9.9957 403.198C14.1842 397.579 16.7461 394.029 17.6813 392.546C19.3447 389.901 21.2519 387.536 23.4029 385.452C25.2533 383.648 26.586 382.172 27.401 381.023C30.6476 376.473 32.812 372.365 35.5475 368.016C37.3311 365.177 38.8976 362.485 40.247 359.94C42.2511 356.159 44.3186 352.428 46.4496 348.747C60.0773 353.296 73.1037 359.148 85.5288 366.303C85.8428 366.483 85.9397 366.74 85.8195 367.074C84.8709 369.82 83.2743 373.708 81.0297 378.738C80.2081 380.575 78.9555 382.579 77.2721 384.75C76.3302 385.973 74.9675 387.927 73.1838 390.612C71.9814 392.422 72.3354 392.81 74.246 391.774C75.3749 391.153 76.9281 390.675 78.9054 390.341Z" fill="black"/>
<path d="M74.6468 413.799C63.7714 413.178 54.8867 412.917 47.9927 413.017C32.3276 413.238 16.6492 413.285 0.957336 413.158C3.07496 409.991 5.43976 407.409 8.05172 405.412C9.04039 405.365 10.2061 404.991 11.5488 404.29C11.5087 406.113 12.3972 406.995 14.2142 406.935C15.3565 406.902 17.2971 406.995 20.036 407.216C22.0401 407.369 23.9807 407.426 25.8578 407.386C36.0251 407.172 41.7434 407.139 43.0126 407.286C43.1729 407.299 43.9645 407.349 45.3874 407.436C47.8624 407.586 50.8685 407.216 52.6321 407.306C54.2955 407.393 55.882 407.296 57.3918 407.015C60.4112 406.447 63.3839 406.097 66.3099 405.963C67.2651 405.916 68.4742 405.339 69.9372 404.23C70.8724 403.522 71.9947 402.85 73.304 402.216C77.5927 400.131 80.7925 397.603 82.9035 394.63C83.5782 393.682 85.7359 390.181 89.3766 384.129C91.2471 381.016 92.867 377.819 94.2365 374.539C95.0181 372.662 96.4576 369.432 98.5552 364.85C98.8291 364.262 99.2366 364.148 99.7777 364.509C99.918 364.603 100.018 364.723 100.078 364.87C100.272 365.351 100.332 365.688 100.259 365.882C96.8651 374.873 93.9526 382.362 91.521 388.347C90.4488 390.973 89.7774 393.578 88.565 396.785C88.0038 398.281 87.1722 399.884 86.0699 401.594C85.3351 402.73 84.3932 404.28 83.2442 406.244C82.4626 407.586 79.9876 408.528 78.6048 409.961C77.4424 411.157 76.1231 412.436 74.6468 413.799Z" fill="#C1D3FE"/>
</svg>
