<svg width="428" height="116" viewBox="0 0 428 116" fill="none" xmlns="http://www.w3.org/2000/svg">
<path d="M312 116.008C207.889 116.008 104.278 116.008 0.329834 116.008C0.329834 77.4961 0.329834 39.1012 0.329834 0.348938C142.552 0.348938 285.03 0.348938 427.758 0.348938C427.758 38.682 427.758 77.076 427.758 116.008C389.334 116.008 350.917 116.008 312 116.008ZM186.232 80.8816C185.466 91.558 180.577 98.412 171.614 101.374C163.665 104.001 155.038 101.99 149.946 95.304C147.018 91.4593 143.862 91.5784 139.301 92.2865C140.347 94.1981 141.059 95.8219 142.047 97.2555C148.678 106.876 160.093 111.275 171.391 108.637C182.543 106.034 191.776 96.532 192.688 84.8844C193.516 74.3006 193.679 63.5204 192.655 52.9704C191.188 37.861 177.433 27.3172 162.444 28.4973C147.652 29.6619 136.372 42.9994 136.678 58.9634C136.97 74.1494 148.912 86.8651 163.369 87.5643C172.511 88.0066 179.643 84.0961 185.952 76.8839C186.097 78.5259 186.167 79.3076 186.232 80.8816ZM415.119 72.3776C412.482 73.3499 409.767 74.1558 407.23 75.3413C404.692 76.5273 402.476 78.5038 399.868 79.4228C386.399 84.1695 371.842 73.9991 373.017 60.2202C388.828 60.2202 404.698 60.2202 420.505 60.2202C421.654 45.9932 413.791 33.6978 401.426 29.7433C390.869 26.3671 379.435 29.552 372.411 37.8253C364.402 47.2603 362.684 61.0238 368.15 71.9692C377.616 90.9251 403.831 93.098 416.165 75.8716C416.696 75.1298 420.452 73.1255 415.119 72.3776ZM233.893 38.3591C239.74 42.9327 240.937 49.4279 241.029 56.2394C241.164 66.1663 241.064 76.0964 241.064 86.0969C243.711 86.0969 245.746 86.0969 247.976 86.0969C247.976 75.192 247.991 64.709 247.959 54.2261C247.954 52.7333 247.779 51.2334 247.583 49.75C245.742 35.7988 236.724 28.1488 222.758 28.4025C216.426 28.5175 211.478 31.2793 206.607 36.9118C206.607 26.04 206.607 16.5004 206.607 7.02505C204.025 7.02505 201.989 7.02505 200.076 7.02505C200.076 33.6604 200.076 59.8869 200.076 86.0974C202.454 86.0974 204.504 86.0974 206.805 86.0974C206.805 75.0245 206.48 64.3611 206.882 53.7251C207.47 38.1759 219.682 31.0258 233.893 38.3591ZM332.021 64.1508C332.021 52.7266 332.021 41.3025 332.021 29.8226C329.58 29.8226 327.509 29.8226 325.121 29.8226C325.121 39.6094 325.208 49.0739 325.073 58.5353C325.027 61.8317 324.807 65.2131 324.016 68.3942C322.073 76.2091 316.425 80.4771 308.475 80.6454C300.334 80.8178 294.287 76.5916 292.225 68.649C291.277 64.9987 291.037 61.0973 290.964 57.3004C290.792 48.2048 290.909 39.1037 290.909 29.8904C288.31 29.8904 286.268 29.8904 284.165 29.8904C284.165 41.7625 283.741 53.26 284.272 64.7134C284.945 79.2382 294.676 87.8014 309.165 87.5418C322.054 87.3108 329.125 80.3298 332.021 64.1508ZM30.2347 61.6325C30.487 57.6561 30.4604 53.638 31.0478 49.7117C32.396 40.7008 38.6171 35.2857 47.2931 35.1828C55.8566 35.0811 62.0162 40.0209 63.8364 48.7937C64.4721 51.8575 64.6648 55.0537 64.7017 58.1936C64.8107 67.4676 64.7407 76.7436 64.7407 86.1968C67.2958 86.1968 69.3788 86.1968 71.8885 86.1968C71.8885 76.6693 71.9524 67.3961 71.8516 58.1246C71.8191 55.1448 71.4718 52.1532 71.0631 49.1953C69.2975 36.417 61.2612 28.8761 48.9455 28.3364C35.7733 27.7592 25.9049 34.4123 24.4984 47.3885C23.1166 60.1372 24.1972 73.1529 24.1972 86.2002C25.9544 86.2002 27.8765 86.2002 29.6968 86.2002C29.9308 85.6514 30.1652 85.3566 30.1666 85.0606C30.2042 77.5747 30.2173 70.0887 30.2347 61.6325ZM101.249 35.7999C102.963 37.2997 105.681 38.5192 106.193 40.3544C107.499 45.0322 110.395 43.9789 113.639 43.5499C113.639 42.3781 113.822 41.3808 113.611 40.4754C111.724 32.3885 104.268 27.7881 94.2526 28.4604C86.119 29.0063 79.6912 34.133 78.7302 40.8407C77.4729 49.6168 80.9797 55.0406 90.0493 58.1791C94.2895 59.6464 98.6694 60.748 102.821 62.4248C107.117 64.1604 109.232 67.5788 108.737 72.3394C108.232 77.195 105.12 79.5833 100.695 80.6588C92.9022 82.5527 87.9567 79.8653 82.9464 70.9096C81.2874 70.992 79.5344 71.079 77.4833 71.1808C77.6467 77.0393 79.9037 81.2036 84.392 84.1357C90.2014 87.9308 96.5753 88.3637 103.122 86.8192C110.842 84.9978 115.361 79.8683 115.854 72.7419C116.402 64.8319 113.107 59.3912 105.489 56.4082C101.164 54.7148 96.5963 53.6527 92.2 52.1272C87.8654 50.6232 85.0985 47.8434 85.6428 42.8248C86.118 38.4427 89.3577 35.4681 94.5802 35.0096C96.5174 34.8396 98.5149 35.3561 101.249 35.7999ZM264.098 11.6471C262.182 11.6471 260.266 11.6471 257.972 11.6471C257.972 17.7664 257.972 23.3714 257.972 29.1385C255.046 29.3987 252.486 29.6266 250.038 29.8443C250.038 32.1895 250.038 34.1137 250.038 36.2382C252.759 36.3913 255.188 36.528 258.073 36.6904C258.073 44.9208 257.577 52.9118 258.242 60.805C258.705 66.2942 259.987 72.0089 262.298 76.9742C265.266 83.3532 271.292 86.1354 278.285 86.8769C279.551 82.3748 278.484 80.4191 274.539 78.2741C271.013 76.3576 267.088 72.0954 266.531 68.3886C264.972 58.0159 265.065 47.3948 264.477 36.3184C269.934 36.3184 274.181 36.3184 278.559 36.3184C278.559 33.8738 278.559 31.946 278.559 29.3065C273.966 29.3065 269.606 29.3065 264.764 29.3065C264.764 23.1381 264.764 17.6792 264.098 11.6471ZM9.71061 54.4998C9.71061 65.0866 9.71061 75.6734 9.71061 86.3517C12.2121 86.3517 14.1139 86.3517 16.1062 86.3517C16.1062 59.6961 16.1062 33.3575 16.1062 6.94077C13.8756 6.94077 11.9677 6.94077 9.71061 6.94077C9.71061 22.6372 9.71061 38.0685 9.71061 54.4998ZM339.045 80.3413C339.045 82.2895 339.045 84.2377 339.045 86.348C341.631 86.348 343.67 86.348 346.075 86.348C346.075 75.6649 345.881 65.3507 346.125 55.0467C346.418 42.6441 350.813 37.7083 362.76 35.5583C362.76 33.4946 362.76 31.4427 362.76 29.4177C350.528 28.8497 341.837 34.9826 340.241 47.0083C338.827 57.6633 339.367 68.5774 339.045 80.3413ZM129.264 74.4619C129.264 59.6848 129.264 44.9077 129.264 29.8114C126.851 29.8114 124.813 29.8114 122.341 29.8114C122.341 47.8836 122.336 65.6517 122.355 83.4197C122.356 84.377 122.568 85.3339 122.707 86.5086C124.86 86.5086 126.787 86.5086 129.264 86.5086C129.264 82.6804 129.264 79.0627 129.264 74.4619ZM129.453 21.1367C132.303 19.0527 133.148 16.0595 131.4 13.2791C130.363 11.6297 127.628 9.95518 125.859 10.1475C123.845 10.3663 121.204 12.2555 120.336 14.118C118.123 18.864 122.521 22.5693 129.453 21.1367Z" fill="#FBFBFB"/>
<path d="M186.234 80.4855C186.167 79.3076 186.098 78.5259 185.953 76.8839C179.643 84.0961 172.511 88.0066 163.369 87.5643C148.912 86.8651 136.97 74.1494 136.678 58.9634C136.372 42.9994 147.652 29.6618 162.444 28.4973C177.433 27.3172 191.188 37.861 192.655 52.9704C193.679 63.5204 193.516 74.3006 192.688 84.8844C191.776 96.532 182.543 106.034 171.391 108.637C160.093 111.275 148.678 106.876 142.047 97.2555C141.059 95.8219 140.347 94.1981 139.301 92.2865C143.862 91.5784 147.018 91.4593 149.947 95.304C155.038 101.99 163.665 104.001 171.614 101.374C180.577 98.412 185.466 91.558 186.234 80.4855ZM185.418 64.423C188.363 50.1858 181.114 37.7292 168.713 35.7157C157.218 33.8494 146.914 40.9374 144.218 52.5652C141.495 64.3098 147.97 76.2476 158.933 79.6945C170.002 83.1749 180.413 77.4329 185.418 64.423Z" fill="#101010"/>
<path d="M415.507 72.3783C420.452 73.1255 416.696 75.1298 416.165 75.8716C403.831 93.098 377.616 90.9251 368.15 71.9692C362.684 61.0238 364.402 47.2603 372.411 37.8253C379.435 29.552 390.869 26.3671 401.426 29.7433C413.791 33.6978 421.654 45.9932 420.505 60.2202C404.698 60.2202 388.828 60.2202 373.017 60.2202C371.842 73.9991 386.399 84.1695 399.869 79.4228C402.476 78.5038 404.692 76.5272 407.23 75.3413C409.767 74.1558 412.482 73.3499 415.507 72.3783ZM392.5 54.2757C399.269 54.2757 406.038 54.2757 412.833 54.2757C412 43.1418 402.497 34.758 391.963 35.4083C381.681 36.043 372.83 44.755 373.155 54.2757C379.26 54.2757 385.38 54.2757 392.5 54.2757Z" fill="#101010"/>
<path d="M233.569 38.1476C219.682 31.0258 207.47 38.1759 206.882 53.7251C206.48 64.3611 206.805 75.0245 206.805 86.0974C204.504 86.0974 202.454 86.0974 200.076 86.0974C200.076 59.8869 200.076 33.6604 200.076 7.02505C201.989 7.02505 204.025 7.02505 206.608 7.02505C206.608 16.5004 206.608 26.04 206.608 36.9118C211.478 31.2793 216.426 28.5175 222.758 28.4025C236.724 28.1488 245.742 35.7988 247.583 49.75C247.779 51.2334 247.955 52.7333 247.959 54.2261C247.991 64.709 247.976 75.192 247.976 86.0969C245.746 86.0969 243.711 86.0969 241.064 86.0969C241.064 76.0964 241.164 66.1663 241.029 56.2394C240.937 49.4279 239.74 42.9327 233.569 38.1476Z" fill="#131313"/>
<path d="M331.978 64.6056C329.125 80.3298 322.054 87.3108 309.165 87.5418C294.676 87.8014 284.945 79.2382 284.272 64.7134C283.741 53.26 284.165 41.7625 284.165 29.8904C286.268 29.8904 288.31 29.8904 290.909 29.8904C290.909 39.1037 290.792 48.2048 290.965 57.3004C291.037 61.0973 291.277 64.9987 292.225 68.649C294.287 76.5916 300.334 80.8178 308.475 80.6454C316.425 80.4771 322.073 76.2091 324.016 68.3942C324.807 65.2131 325.027 61.8317 325.074 58.5353C325.208 49.0739 325.121 39.6094 325.121 29.8226C327.509 29.8226 329.58 29.8226 332.021 29.8226C332.021 41.3025 332.021 52.7266 331.978 64.6056Z" fill="#0F0F0F"/>
<path d="M30.2347 62.1176C30.2173 70.0887 30.2042 77.5747 30.1666 85.0606C30.1652 85.3566 29.9308 85.6514 29.6969 86.2002C27.8766 86.2002 25.9544 86.2002 24.1972 86.2002C24.1972 73.1529 23.1166 60.1372 24.4984 47.3885C25.9049 34.4123 35.7734 27.7592 48.9455 28.3364C61.2612 28.8761 69.2975 36.417 71.0631 49.1953C71.4718 52.1531 71.8192 55.1448 71.8516 58.1246C71.9524 67.3961 71.8885 76.6693 71.8885 86.1968C69.3788 86.1968 67.2958 86.1968 64.7407 86.1968C64.7407 76.7436 64.8107 67.4676 64.7018 58.1936C64.6649 55.0537 64.4721 51.8575 63.8364 48.7937C62.0162 40.0209 55.8566 35.0811 47.2931 35.1828C38.6171 35.2857 32.396 40.7008 31.0479 49.7117C30.4604 53.638 30.487 57.6561 30.2347 62.1176Z" fill="#0F0F0F"/>
<path d="M100.867 35.6797C98.5149 35.3561 96.5174 34.8396 94.5802 35.0096C89.3577 35.4681 86.118 38.4427 85.6428 42.8248C85.0985 47.8434 87.8654 50.6232 92.2 52.1272C96.5963 53.6527 101.164 54.7148 105.489 56.4082C113.107 59.3912 116.402 64.8319 115.854 72.7419C115.361 79.8683 110.842 84.9978 103.122 86.8192C96.5753 88.3637 90.2015 87.9308 84.392 84.1357C79.9037 81.2036 77.6467 77.0393 77.4833 71.1808C79.5344 71.079 81.2874 70.992 82.9464 70.9096C87.9567 79.8653 92.9022 82.5527 100.695 80.6588C105.12 79.5833 108.232 77.195 108.737 72.3394C109.232 67.5788 107.117 64.1604 102.821 62.4248C98.6694 60.748 94.2895 59.6464 90.0493 58.1791C80.9797 55.0406 77.4729 49.6168 78.7302 40.8407C79.6912 34.133 86.119 29.0063 94.2526 28.4604C104.268 27.7881 111.724 32.3886 113.611 40.4754C113.822 41.3808 113.639 42.3781 113.639 43.5499C110.395 43.9789 107.499 45.0322 106.193 40.3544C105.681 38.5192 102.963 37.2997 100.867 35.6797Z" fill="#111111"/>
<path d="M264.431 11.9338C264.765 17.6792 264.765 23.1381 264.765 29.3065C269.606 29.3065 273.966 29.3065 278.56 29.3065C278.56 31.946 278.56 33.8738 278.56 36.3184C274.181 36.3184 269.934 36.3184 264.478 36.3184C265.065 47.3948 264.972 58.0159 266.531 68.3886C267.088 72.0954 271.013 76.3576 274.539 78.2741C278.484 80.4191 279.551 82.3748 278.286 86.8769C271.292 86.1354 265.266 83.3532 262.298 76.9742C259.988 72.0089 258.705 66.2942 258.242 60.805C257.577 52.9118 258.073 44.9208 258.073 36.6904C255.188 36.528 252.759 36.3913 250.038 36.2382C250.038 34.1137 250.038 32.1895 250.038 29.8443C252.486 29.6266 255.046 29.3987 257.972 29.1385C257.972 23.3714 257.972 17.7664 257.972 11.6471C260.266 11.6471 262.182 11.6471 264.431 11.9338Z" fill="#121212"/>
<path d="M9.71063 53.9998C9.71063 38.0685 9.71063 22.6372 9.71063 6.94077C11.9677 6.94077 13.8756 6.94077 16.1062 6.94077C16.1062 33.3575 16.1062 59.6961 16.1062 86.3517C14.1139 86.3517 12.2122 86.3517 9.71064 86.3517C9.71064 75.6734 9.71064 65.0866 9.71063 53.9998Z" fill="#030303"/>
<path d="M339.045 79.8592C339.367 68.5774 338.827 57.6633 340.241 47.0083C341.837 34.9826 350.528 28.8497 362.76 29.4177C362.76 31.4427 362.76 33.4946 362.76 35.5583C350.813 37.7083 346.418 42.6441 346.125 55.0467C345.881 65.3507 346.075 75.6649 346.075 86.348C343.67 86.348 341.631 86.348 339.045 86.348C339.045 84.2377 339.045 82.2895 339.045 79.8592Z" fill="#111111"/>
<path d="M129.264 74.9534C129.264 79.0627 129.264 82.6804 129.264 86.5086C126.787 86.5086 124.86 86.5086 122.707 86.5086C122.568 85.3339 122.356 84.377 122.355 83.4197C122.336 65.6517 122.341 47.8836 122.341 29.8114C124.813 29.8114 126.851 29.8114 129.264 29.8114C129.264 44.9077 129.264 59.6848 129.264 74.9534Z" fill="#181818"/>
<path d="M129.106 21.3392C122.521 22.5693 118.123 18.864 120.336 14.118C121.204 12.2555 123.845 10.3663 125.859 10.1475C127.628 9.95518 130.363 11.6297 131.4 13.2791C133.148 16.0595 132.303 19.0527 129.106 21.3392Z" fill="#FB5D18"/>
<path d="M185.303 64.8191C180.413 77.4329 170.002 83.1749 158.933 79.6945C147.97 76.2476 141.495 64.3098 144.218 52.5652C146.914 40.9374 157.218 33.8494 168.713 35.7157C181.114 37.7292 188.363 50.1858 185.303 64.8191Z" fill="#FAFAFA"/>
<path d="M392 54.2757C385.38 54.2758 379.26 54.2758 373.155 54.2758C372.83 44.755 381.681 36.043 391.963 35.4083C402.497 34.758 412 43.1418 412.833 54.2757C406.038 54.2757 399.269 54.2757 392 54.2757Z" fill="#F8F8F8"/>
</svg>
