<svg width="1007" height="186" viewBox="0 0 1007 186" fill="none" xmlns="http://www.w3.org/2000/svg">
<path d="M161.975 155.841C156.875 164.619 151.888 173.466 146.567 182.108C145.66 183.581 143.323 185.039 141.642 185.044C95.3384 185.195 49.0341 185.157 2.72998 185.133C2.27918 185.133 1.82846 184.906 0.799316 184.629C36.154 123.386 71.3776 62.3704 107.079 0.527161C112.899 10.6354 118.414 20.0157 123.622 29.5632C124.153 30.5373 123.118 32.6723 122.351 34.0039C99.996 72.7946 77.5815 111.551 55.1824 150.316C54.4431 151.596 53.7664 152.912 52.5324 155.182C89.0378 155.182 124.859 155.182 161.278 155.26C162.018 155.494 162.051 155.661 161.975 155.841Z" fill="#F05B2C"/>
<path d="M463.964 50.0427C463.964 81.8213 463.964 113.105 463.964 144.96C456.311 144.96 449.032 145.13 441.776 144.807C440.433 144.747 438.87 142.907 437.93 141.532C425.817 123.801 413.804 106.003 401.748 88.2335C400.677 86.6543 399.485 85.1565 397.467 82.4278C397.467 104.085 397.467 124.27 397.467 144.708C389.384 144.708 381.833 144.708 374.072 144.708C374.072 110.141 374.072 75.7148 374.072 40.9234C381.236 40.9234 388.212 40.7346 395.162 41.0702C396.696 41.1443 398.58 42.7739 399.56 44.1981C411.927 62.1574 424.155 80.212 436.428 98.2359C437.341 99.5764 438.327 100.867 440.097 103.308C440.097 81.9339 440.097 61.8017 440.097 41.2946C448.261 41.2946 455.802 41.2946 463.964 41.2946C463.964 44.0016 463.964 46.7746 463.964 50.0427Z" fill="#262C67"/>
<path d="M707.846 109.399C706.043 109.393 704.723 109.393 702.879 109.393C702.879 121.247 702.879 132.83 702.879 144.684C694.806 144.684 687.254 144.684 679.447 144.684C679.447 110.211 679.447 75.957 679.447 41.4383C679.97 41.2844 680.565 40.9568 681.16 40.957C696.486 40.9618 711.829 40.5632 727.135 41.1355C750.469 42.0079 765.893 64.1592 758.974 86.2012C755.89 96.0275 749.066 102.506 739.386 106.92C743.446 113.328 747.329 119.461 751.218 125.59C755.127 131.751 759.042 137.91 763.512 144.947C754.032 144.947 745.342 145.068 736.662 144.802C735.507 144.767 734.127 142.944 733.336 141.652C727.774 132.569 722.18 123.498 716.945 114.226C714.904 110.611 712.592 108.542 707.846 109.399ZM708.606 88.922C713.937 88.9173 719.276 89.0926 724.598 88.8624C731.221 88.5759 736.01 83.5523 736.39 76.9114C736.773 70.2204 732.728 63.9877 726.379 63.4241C718.676 62.7401 710.866 63.2618 703.042 63.2618C703.042 71.92 703.042 80.1833 703.042 88.9224C704.726 88.9224 706.178 88.9224 708.606 88.922Z" fill="#262C67"/>
<path d="M565.694 136.478C577.222 105.778 588.656 75.4537 599.907 45.0618C601.069 41.923 602.399 40.6407 605.892 40.8229C612.367 41.1604 618.876 41.0334 625.365 40.8583C628.026 40.7865 629.488 41.3906 630.515 44.1424C642.775 76.9916 655.184 109.785 667.539 142.599C667.762 143.191 667.805 143.85 668.03 144.964C660.148 144.964 652.536 145.083 644.936 144.835C643.808 144.798 642.251 143.24 641.728 142.026C640.021 138.064 638.925 133.831 637.112 129.926C636.472 128.548 634.459 126.954 633.045 126.926C621.062 126.687 609.072 126.703 597.088 126.909C595.759 126.932 593.856 128.338 593.253 129.598C590.86 134.592 590.214 141.863 586.376 144.33C582.361 146.91 575.424 144.944 569.764 144.961C567.618 144.967 565.472 144.962 562.582 144.962C563.678 141.96 564.613 139.397 565.694 136.478ZM610.878 79.3104C607.904 87.7087 604.93 96.107 601.879 104.723C610.87 104.723 619.384 104.723 628.438 104.723C624.058 92.3147 619.822 80.3132 615.188 67.1855C613.535 71.7748 612.315 75.1645 610.878 79.3104Z" fill="#262C67"/>
<path d="M958.008 116.056C956.419 113.753 955.024 111.754 953.278 109.252C945.717 120.318 938.38 130.794 931.376 141.489C929.562 144.259 927.65 145.125 924.489 145.036C916.746 144.817 908.992 144.964 900.124 144.964C912.78 127.009 924.819 109.928 937.011 92.6321C925.1 75.655 913.272 58.7971 900.753 40.9536C910.677 40.9536 919.689 40.831 928.689 41.1031C929.863 41.1385 931.192 43.0555 932.083 44.3524C939.146 54.637 946.12 64.9825 953.563 75.9592C958.492 68.6392 963.067 61.7819 967.71 54.9708C970.891 50.3049 973.231 43.9961 977.669 41.5642C981.91 39.24 988.378 40.9686 993.867 40.9372C997.52 40.9164 1001.17 40.9333 1005.81 40.9333C993.537 58.5293 981.695 75.5043 969.749 92.6286C981.875 109.913 993.884 127.032 1006.47 144.975C996.72 144.975 987.972 145.092 979.234 144.842C978.001 144.806 976.522 143.186 975.662 141.948C969.767 133.471 964.006 124.9 958.008 116.056Z" fill="#F05B2C"/>
<path d="M538.997 122.862C544.445 122.862 549.393 122.862 554.565 122.862C554.565 130.294 554.565 137.229 554.565 144.567C531.032 144.567 507.522 144.567 483.771 144.567C483.771 110.109 483.771 75.6998 483.771 41.1031C507.127 41.1031 530.23 41.1031 553.687 41.1031C553.687 48.2316 553.687 55.295 553.687 62.8754C538.368 62.8754 522.981 62.8754 507.296 62.8754C507.296 69.2709 507.296 75.1566 507.296 81.5244C521.249 81.5244 535.001 81.5244 548.818 81.5244C548.818 89.0964 548.818 96.1863 548.818 103.607C534.963 103.607 521.351 103.607 507.366 103.607C507.366 109.991 507.366 116.057 507.366 122.862C517.659 122.862 528.079 122.862 538.997 122.862Z" fill="#252B67"/>
<path d="M772.066 72.758C771.948 57.7292 777.885 47.9992 791.529 42.9584C810.505 35.9471 828.805 37.8714 845.773 49.3627C846.837 50.0831 847.711 51.083 848.812 52.0784C845.26 57.9328 841.828 63.5878 838.997 68.2525C830.987 65.4961 823.587 62.02 815.812 60.6143C810.963 59.7377 805.172 61.0899 800.485 63.0619C794.646 65.5189 794.319 71.9727 799.766 75.271C804.203 77.9579 809.563 79.1153 814.502 80.9798C822.553 84.0185 831.266 85.968 838.512 90.3441C859.281 102.887 857.922 129.909 836.253 141.03C818.762 150.006 801.041 147.952 783.699 140.394C778.139 137.972 773.105 134.345 767.421 131.03C771.832 124.504 775.709 118.767 779.245 113.536C786.322 117.06 792.902 120.9 799.907 123.664C806.828 126.394 814.213 126.765 821.417 124.079C825.323 122.623 828.816 120.447 828.973 115.775C829.126 111.205 825.699 108.897 822.013 107.618C815.898 105.496 809.425 104.346 803.424 101.972C796.369 99.181 789.289 96.1059 782.898 92.0781C776.29 87.9136 772.851 81.1341 772.066 72.758Z" fill="#F05B2C"/>
<path d="M162.286 156.113C162.051 155.661 162.018 155.494 161.788 155.311C149.27 133.651 136.838 112.018 124.414 90.3816C123.604 88.9714 122.849 87.5297 121.658 85.3505C132.993 85.3505 143.709 85.2908 154.422 85.4506C155.404 85.4651 156.71 86.6836 157.285 87.6785C175.859 119.791 194.362 151.944 212.867 184.096C212.942 184.226 212.901 184.423 212.957 185.148C202.161 185.148 191.398 185.225 180.639 185.025C179.594 185.005 178.276 183.448 177.599 182.301C172.526 173.705 167.581 165.033 162.286 156.113Z" fill="#262C67"/>
<path d="M268.802 40.9272C270.755 40.9283 272.238 40.9283 274.195 40.9283C274.195 68.2988 274.195 95.3481 274.195 122.774C288.772 122.774 302.877 122.774 317.284 122.774C317.284 130.228 317.284 137.304 317.284 144.673C295.278 144.673 273.396 144.673 251.161 144.673C251.161 110.289 251.161 75.9218 251.161 40.926C256.84 40.926 262.585 40.926 268.802 40.9272Z" fill="#252B67"/>
<path d="M330.738 62.0001C330.738 54.8607 330.738 48.2213 330.738 41.2469C338.541 41.2469 346.073 41.2469 353.861 41.2469C353.861 75.7519 353.861 110.1 353.861 144.707C346.243 144.707 338.837 144.707 330.738 144.707C330.738 117.26 330.738 89.8799 330.738 62.0001Z" fill="#252B67"/>
<path d="M871.121 40.9337C877.239 40.934 882.869 40.934 888.83 40.934C888.83 75.6461 888.83 109.993 888.83 144.66C881.406 144.66 874.012 144.66 866.268 144.66C866.268 110.257 866.268 75.9171 866.268 41.2238C867.754 41.1249 869.194 41.0291 871.121 40.9337Z" fill="#F05B2C"/>
</svg>
