<svg width="1431" height="200" viewBox="0 0 1431 200" fill="none" xmlns="http://www.w3.org/2000/svg">
<path d="M691.026 56.0106C689.398 58.3628 687.94 60.3839 686.275 62.693C688.248 64.9994 690.354 67.2995 692.282 69.7408C703.603 84.0823 707.206 99.9797 699.427 116.855C690.923 135.304 676.786 146.546 655.444 146.536C637.952 146.529 620.461 146.565 602.969 146.505C593.142 146.471 588.003 141.19 588 131.271C587.99 93.4549 587.985 55.6393 588.003 17.8236C588.008 7.51367 592.671 2.82631 602.81 2.82503C620.135 2.82285 637.461 2.82003 654.786 2.83667C663.826 2.84535 672.228 5.18141 679.804 10.1293C695.364 20.2919 700.085 39.3232 691.026 56.0106ZM649.443 79.9999C638.501 79.9999 627.558 79.9999 616.415 79.9999C616.415 93.8902 616.415 107.288 616.415 120.805C630.269 120.805 643.904 121.347 657.466 120.59C664.896 120.175 670.653 115.348 674.368 108.696C681.418 96.0751 675.888 83.7774 661.796 80.9958C658.084 80.263 654.217 80.3108 649.443 79.9999ZM616.163 40.5048C616.163 44.9298 616.163 49.3548 616.163 54.4255C627.307 54.4255 637.791 54.8005 648.229 54.2628C653.231 54.005 658.533 52.818 663.012 50.6382C670.628 46.9311 670.841 37.0573 663.821 32.2652C661.807 30.8906 659.378 29.4444 657.062 29.3044C643.553 28.4871 630.02 28.0486 616.163 27.4683C616.163 32.25 616.163 35.8838 616.163 40.5048Z" fill="#E5E5E5"/>
<path d="M526.093 146.534C518.319 147.999 512.737 145.845 507.859 139.688C487.283 113.718 466.321 88.0523 445.496 62.2791C444.609 61.1817 443.675 60.1223 442.004 58.1484C442.004 66.3495 442.004 73.4287 442.004 80.5079C442.004 97.3333 442.027 114.159 441.996 130.984C441.975 142.168 435.093 148.001 424.313 146.067C419.147 145.14 415.995 142.054 414.944 136.985C414.441 134.56 414.193 132.039 414.19 129.56C414.141 93.0775 414.043 56.5938 414.296 20.1127C414.326 15.8661 415.277 10.8137 417.708 7.56099C423.174 0.24909 434.037 1.21723 440.058 8.77336C456.033 28.8246 471.974 48.9042 487.938 68.9646C494.408 77.0945 500.903 85.2039 508.16 94.2895C508.315 91.5969 508.465 90.1957 508.466 88.7945C508.481 66.6382 508.469 44.4819 508.487 22.3256C508.489 20.1638 508.55 17.9924 508.755 15.8419C509.538 7.65299 514.725 3.26252 523.251 3.48441C530.637 3.67662 536.091 8.94083 536.11 16.584C536.206 55.732 536.135 94.8803 536.168 134.028C536.173 140.766 532.266 144.28 526.093 146.534Z" fill="#E4E4E4"/>
<path d="M367.728 103.662C346.371 153.364 286.102 167.16 247.161 130.938C224.85 110.185 217.857 83.8341 226.636 54.7387C235.288 26.062 255.3 8.15622 284.983 2.94686C332.332 -5.3628 373.873 30.5442 372.637 78.4587C372.422 86.7759 369.532 95.0241 367.728 103.662ZM316.281 33.0402C303.967 28.015 291.633 27.9339 279.408 33.2017C257.153 42.7913 245.899 67.7318 253.279 90.8361C260.588 113.72 284.637 127.419 308.273 122.161C327.646 117.852 342.346 101.671 344.799 81.9546C347.314 61.7466 336.41 42.6847 316.281 33.0402Z" fill="#E5E5E5"/>
<path d="M1195.06 115.112C1209.58 122.038 1223.87 120.76 1237.99 115.396C1244 113.116 1247.84 108.793 1247.05 101.575C1246.69 98.2892 1246.99 94.9312 1246.99 90.8343C1244.96 90.8343 1242.88 90.8669 1240.8 90.8285C1232.66 90.678 1224.46 91.0095 1216.39 90.1773C1210.18 89.5379 1205.47 82.3618 1206.06 76.2654C1206.73 69.1777 1211.88 63.9186 1218.71 63.8605C1233.53 63.7343 1248.36 63.7482 1263.18 63.8752C1270.35 63.9366 1275.63 69.5935 1275.75 77.8652C1275.92 89.8458 1275.58 101.835 1275.39 113.819C1275.22 124.24 1269.42 131.157 1261.01 136.292C1251.02 142.397 1239.87 145.07 1228.44 146.606C1199.04 150.555 1174.6 142.181 1157.96 116.598C1147.51 100.525 1144.66 82.3688 1146.51 63.4736C1147.66 51.7395 1151.05 40.6414 1157.55 30.6945C1168.95 13.2415 1185.18 3.60977 1205.9 1.96031C1226.74 0.301335 1246.47 3.71418 1263.26 17.1878C1266.27 19.6035 1268.72 23.5416 1269.86 27.2579C1271.44 32.4037 1269.35 37.1878 1264.58 40.1501C1258.9 43.6748 1253.32 42.6826 1247.55 39.7791C1240.78 36.3715 1233.98 32.2878 1226.72 30.8053C1219.11 29.2514 1210.62 29.0146 1203.08 30.7063C1185.52 34.6443 1176.82 47.42 1174.73 64.6051C1172.27 84.8318 1176.73 102.674 1195.06 115.112Z" fill="#E5E5E5"/>
<path d="M983.998 33.0003C984.011 27.1703 983.849 21.8327 984.076 16.5117C984.467 7.33575 989.2 2.85596 998.289 2.83479C1012.11 2.8026 1025.96 2.37145 1039.76 2.92434C1068.22 4.06408 1101.24 21.2677 1105.1 63.2656C1106.51 78.5882 1105.51 93.5844 1099.86 107.924C1094.38 121.827 1084.21 131.873 1070.97 138.373C1060 143.758 1048.25 146.737 1035.82 146.545C1023.82 146.36 1011.83 146.531 999.836 146.503C989.174 146.477 984.023 141.295 984.011 130.447C983.976 98.1313 983.998 65.8158 983.998 33.0003ZM1042.92 117.814C1057.17 115.483 1068.2 108.808 1073.65 94.7865C1077.41 85.1036 1078.11 74.9372 1076.71 64.826C1075.1 53.1049 1069.09 43.9092 1059.1 37.1059C1044.43 27.1158 1028.13 31.0534 1012.31 30.1503C1012.31 59.8703 1012.31 88.9134 1012.31 117.905C1022.42 117.905 1032.22 117.905 1042.92 117.814Z" fill="#E5E5E5"/>
<path d="M804.501 96.4982C802.001 91.9471 799.491 87.8017 797.48 83.4269C795.984 80.173 793.821 79.2279 790.424 79.44C786.12 79.7089 781.786 79.505 776.845 79.505C776.845 82.8436 776.844 85.9527 776.845 89.0619C776.85 103.724 776.919 118.386 776.836 133.047C776.788 141.559 771.928 147.293 764.496 147.972C754.915 148.847 749.056 143.462 749.008 133.566C748.907 112.907 748.903 92.248 748.818 71.5894C748.743 53.5995 749.012 35.5949 748.34 17.6264C747.988 8.22732 754.851 0.513134 764.863 0.948475C781.992 1.69327 799.177 1.03708 816.337 1.1802C847.235 1.43789 866.775 32.6705 853.027 59.6749C848.205 69.1479 840.193 75.3797 826.188 80.3877C831.942 89.5506 837.67 98.6296 843.354 107.736C847.141 113.803 851.036 119.812 854.578 126.021C859.231 134.178 857.683 141.037 850.527 145.577C844.598 149.337 835.305 146.78 830.996 139.843C822.126 125.563 813.457 111.159 804.501 96.4982ZM806.417 26.9974C796.651 26.9974 786.885 26.9974 777.243 26.9974C777.243 35.9071 777.243 44.2655 777.243 52.8119C788.612 52.8119 799.582 52.9744 810.542 52.7195C814.142 52.6357 817.801 51.7602 821.282 50.7335C827.15 49.0027 830.033 45.4425 830.086 40.6536C830.148 35.1056 827.442 30.8448 821.594 29.1693C817.026 27.8605 812.135 27.6798 806.417 26.9974Z" fill="#E5E5E5"/>
<path d="M1362.06 30.1734C1359.1 30.1734 1356.64 30.1734 1353.85 30.1734C1353.85 37.3689 1353.85 44.098 1353.85 51.4604C1362.84 51.4604 1371.77 51.5212 1380.7 51.4434C1389.69 51.3649 1398.69 51.018 1407.68 51.031C1416.02 51.043 1421.26 56.8463 1421.17 65.5677C1421.08 74.2325 1416.59 78.7655 1407.88 78.8379C1391.39 78.9751 1374.9 79.0518 1358.4 79.1692C1356.94 79.1796 1355.48 79.3037 1353.78 79.3867C1353.78 92.6277 1353.78 105.559 1353.78 118.994C1355.61 118.994 1357.4 118.998 1359.2 118.994C1378.02 118.944 1396.85 118.862 1415.68 118.857C1424.56 118.855 1430.22 124.044 1430.51 132.258C1430.8 140.553 1425.65 146.237 1416.55 146.334C1390.89 146.607 1365.23 146.63 1339.57 146.416C1330.45 146.34 1325.2 140.611 1325.19 131.434C1325.11 92.7781 1325.13 54.1223 1325.2 15.4667C1325.22 7.17346 1330.49 2.52279 1339.55 2.505C1353.54 2.47751 1367.54 2.51223 1381.54 2.51657C1393.2 2.52018 1404.86 2.48413 1416.53 2.53285C1422.31 2.55701 1427.06 4.72677 1429.36 10.2838C1431.66 15.8406 1430.75 21.4377 1426.51 25.5348C1424.12 27.8403 1420.27 29.7807 1417.03 29.8604C1398.88 30.3061 1380.71 30.1343 1362.06 30.1734Z" fill="#E4E4E4"/>
<path d="M0.827995 43.9999C0.827083 34.675 0.765019 25.8495 0.842419 17.0253C0.920128 8.16603 6.18761 2.80563 14.6087 2.83311C23.241 2.86128 28.8095 8.40791 28.8228 17.2786C28.8705 49.2481 28.8423 81.2177 28.8427 113.187C28.8428 114.814 28.8427 116.44 28.8427 118.992C43.5833 118.992 57.8594 118.988 72.1354 118.994C79.7946 118.997 87.4569 118.887 95.1123 119.063C104.081 119.269 108.952 123.994 108.836 132.022C108.71 140.72 103.116 146.755 94.6324 146.792C70.6557 146.897 46.6769 146.971 22.7016 146.762C7.78368 146.632 0.842076 139.295 0.835606 124.424C0.824017 97.7826 0.829593 71.1412 0.827995 43.9999Z" fill="#E5E5E5"/>
<path d="M298 199.631C254.019 199.631 210.539 199.641 167.059 199.609C164.07 199.607 161.06 199.457 158.096 199.083C150.932 198.18 146.099 192.582 146.124 185.452C146.15 178.192 150.828 172.713 158 171.747C160.298 171.438 162.647 171.419 164.973 171.418C227.112 171.399 289.251 171.399 351.389 171.402C353.054 171.402 354.727 171.375 356.381 171.53C364.304 172.27 368.915 177.267 368.858 184.97C368.799 192.872 364.019 198.923 356.443 199.112C337.802 199.579 319.148 199.494 300.499 199.63C299.833 199.635 299.166 199.631 298 199.631ZM357.377 192.046C362.454 188.131 363.048 182.825 358.699 179.622C355.838 177.515 352.83 177.367 349.932 179.567C346.889 181.877 345.936 185.058 347.558 188.416C349.342 192.109 352.502 193.69 357.377 192.046ZM165.607 190.142C168.321 186.527 168.125 183.01 164.889 179.921C162.027 177.189 157.695 177.339 155.028 180.194C152.33 183.081 151.928 186.403 154.226 189.719C156.688 193.272 160.634 193.549 165.607 190.142Z" fill="#EA6426"/>
<path d="M930.876 139.535C926.366 145.817 920.911 148.012 914.807 146.29C908.327 144.462 904.989 140.265 904.69 132.636C904.39 124.986 904.527 117.318 904.524 109.658C904.511 80.0128 904.496 50.3673 904.55 20.722C904.556 17.5745 904.589 14.3224 905.345 11.3032C906.794 5.51686 912.243 2.4749 919.471 2.85996C925.732 3.19343 931.064 7.40702 932.056 13.0168C932.43 15.1323 932.485 17.3252 932.486 19.4829C932.506 56.2898 932.53 93.0969 932.427 129.904C932.419 132.997 931.521 136.088 930.876 139.535Z" fill="#E6E6E6"/>
<path d="M178.834 58.0001C178.834 82.8296 178.875 107.159 178.814 131.489C178.79 140.995 173.892 146.911 165.863 147.497C157.44 148.112 151.104 142.472 150.885 133.767C150.672 125.274 150.832 116.771 150.831 108.273C150.826 78.111 150.996 47.9476 150.739 17.7879C150.624 4.24937 163.172 0.919948 171.602 5.27439C177.007 8.06633 178.834 12.7899 178.838 18.5063C178.847 31.5042 178.836 44.5021 178.834 58.0001Z" fill="#E5E5E5"/>
<path d="M357.032 192.205C352.502 193.69 349.342 192.108 347.558 188.416C345.936 185.058 346.889 181.877 349.932 179.567C352.83 177.367 355.838 177.515 358.699 179.622C363.048 182.825 362.454 188.131 357.032 192.205Z" fill="#180603"/>
<path d="M165.346 190.409C160.634 193.549 156.688 193.272 154.226 189.719C151.928 186.403 152.33 183.081 155.028 180.194C157.695 177.339 162.027 177.189 164.889 179.921C168.125 183.01 168.321 186.526 165.346 190.409Z" fill="#150402"/>
</svg>
