<svg width="614" height="197" viewBox="0 0 614 197" fill="none" xmlns="http://www.w3.org/2000/svg">
<path d="M530.999 193.002C525.502 193.002 520.488 192.756 515.512 193.083C511.776 193.328 509.96 192.105 509.591 188.345C509.352 185.913 508.658 183.525 508.072 180.652C506.885 181.35 506.046 181.732 505.332 182.277C483.954 198.604 460.414 200.169 435.969 191.373C423.629 186.932 416.559 176.894 414.595 163.981C411.869 146.061 415.179 130.894 431.077 121.898C439.234 117.282 449.062 115.206 458.395 113.184C469.404 110.799 480.696 109.723 491.861 108.049C492.835 107.903 493.784 107.559 494.73 107.264C503.514 104.519 506.915 100.836 506.797 94.2157C506.624 84.5289 502.493 78.0457 493.801 76.6571C486.875 75.5506 479.498 75.4163 472.586 76.5165C462.448 78.1301 457.536 85.4476 456.487 96.2133C450.169 96.2133 443.91 96.2133 437.651 96.2133C431.349 96.2133 425.046 96.2133 418.032 96.2133C418.987 83.5075 423.254 73.0287 432.752 64.9344C441.479 57.4974 451.657 53.2578 462.909 51.5534C482.035 48.6561 501.081 48.556 519.623 54.8273C536.89 60.6673 545.018 72.4889 545.005 90.5888C544.992 110.247 544.948 129.905 545.02 149.563C545.073 163.977 544.055 178.501 549.347 193.002C543.06 193.002 537.279 193.002 530.999 193.002ZM501.846 159.197C508.09 148.727 506.56 137.198 506.786 125.851C501.857 127.323 497.354 128.951 492.718 129.973C488.035 131.005 483.141 131.11 478.48 132.214C472.549 133.62 466.469 134.994 460.982 137.527C454.305 140.61 451.917 146.914 452.044 154.073C452.156 160.388 454.879 165.383 460.55 168.287C473.374 174.852 492.299 170.847 501.846 159.197Z" fill="#5A91C1"/>
<path d="M280.808 84.2496C295.376 111.986 292.65 153.643 270.987 175.722C256.562 190.424 238.787 196.108 218.638 196.296C196.833 196.499 177.486 190.777 162.674 173.891C148.282 157.483 144.364 137.785 145.617 116.675C146.346 104.401 149.177 92.6222 155.715 82.0615C170.19 58.6816 192.072 49.5804 218.696 49.8188C235.459 49.9689 251.285 53.6774 264.194 64.7447C270.51 70.1594 275.195 77.4757 280.808 84.2496ZM249.077 103.608C248.728 102.5 248.409 101.382 248.027 100.286C243.746 88.0045 233.617 79.5748 222.368 78.9194C204.59 77.8836 195.337 82.7891 188.601 96.9937C182.958 108.895 182.956 121.634 184.469 134.195C186.624 152.093 194.809 166.498 214.889 167.682C227.269 168.412 238.979 164.874 245.536 151.673C253.085 136.476 252.362 120.501 249.077 103.608Z" fill="#5A91C1"/>
<path d="M37 193.003C24.8683 193.003 13.2365 193.003 0.996052 193.003C0.996052 183.507 0.889431 174.4 1.10937 165.3C1.14292 163.913 2.50915 162.403 3.56059 161.217C26.3117 135.558 49.1067 109.938 71.8825 84.3015C72.1976 83.9467 72.3763 83.4707 72.9863 82.415C50.7093 82.415 28.8496 82.415 6.27626 82.415C6.27626 73.0708 6.20935 64.3034 6.39114 55.5411C6.40737 54.7592 7.92703 53.7151 8.9506 53.3299C9.97446 52.9445 11.2521 53.2275 12.4185 53.2274C47.7466 53.2263 83.0748 53.2265 118.403 53.2264C120.038 53.2264 121.673 53.2264 123.97 53.2264C123.97 62.8983 124.06 72.1604 123.863 81.4164C123.837 82.6553 122.495 83.9831 121.534 85.0681C99.0272 110.491 76.4879 135.886 53.96 161.291C53.4229 161.896 52.9477 162.557 51.8722 163.912C77.8678 163.912 103.188 163.912 128.8 163.912C128.8 173.785 128.8 183.037 128.8 193.003C98.3482 193.003 67.9241 193.003 37 193.003Z" fill="#5A91C1"/>
<path d="M575.903 154C575.903 102.552 575.903 51.6049 575.903 0.37616C588.698 0.37616 600.96 0.37616 613.62 0.37616C613.62 64.4259 613.62 128.452 613.62 192.739C601.241 192.739 588.975 192.739 575.903 192.739C575.903 179.993 575.903 167.247 575.903 154Z" fill="#5990C1"/>
<path d="M327.014 193.002C322.873 193.002 319.229 193.002 315.187 193.002C315.187 146.465 315.187 100.257 315.187 53.6376C326.873 53.6376 338.59 53.6376 350.732 53.6376C350.732 61.7064 350.732 69.7885 350.732 77.8707C351.047 77.9985 351.362 78.1264 351.677 78.2543C352.735 76.5616 353.761 74.8487 354.854 73.1793C365.007 57.6713 379.108 49.3913 397.894 49.9241C404.521 50.112 404.771 50.5341 404.772 57.1711C404.774 66.6338 404.772 76.0965 404.772 85.7338C398.373 85.7338 392.477 85.6665 386.583 85.7464C368.813 85.987 356.107 98.7507 354.118 117.394C353.203 125.97 353.144 134.657 353.062 143.298C352.908 159.61 353.018 175.925 353.018 193.002C344.353 193.002 335.932 193.002 327.014 193.002Z" fill="#5A91C1"/>
</svg>
